<?xml version="1.0" standalone="no"?>
<!DOCTYPE svg PUBLIC "-//W3C//DTD SVG 1.1//EN" "http://www.w3.org/Graphics/SVG/1.1/DTD/svg11.dtd" >
<svg xmlns="http://www.w3.org/2000/svg">
<metadata>
This is a custom SVG webfont generated by Font Squirrel.
Copyright   : Copyright  NIGMA FONTS 2001 All rights reserved  please read the included text file for more info
Designer    : NIGMA FONTS  Brian Kent
Foundry     : NIGMA FONTS
</metadata>
<defs>
<font id="ElsewhereBRKRegular" horiz-adv-x="398" >
<font-face units-per-em="1000" ascent="800" descent="-200" />
<missing-glyph horiz-adv-x="400" />
<glyph unicode=" "  horiz-adv-x="400" />
<glyph unicode="&#x09;" horiz-adv-x="400" />
<glyph unicode="&#xa0;" horiz-adv-x="400" />
<glyph unicode="!" horiz-adv-x="108" d="M53 99q10 0 21 -3.5t11 -17.5v-36q0 -7 -5 -14t-13 -7h-26q-8 0 -14.5 7.5t-6.5 15.5v31q0 1 1.5 5t2.5 6q4 10 12.5 11.5t16.5 1.5zM35 173q-8 3 -11.5 11.5t-3.5 16.5v457q0 8 5 19t15 11h27q12 0 16.5 -13t4.5 -22q0 -450 -2 -456l-2 -10q-2 -5 -6 -10.5t-10 -5.5 q-30 0 -31 0.5t-2 1.5z" />
<glyph unicode="&#x22;" horiz-adv-x="216" d="M36 469q-10 3 -13 15t-3 20v148q0 9 4.5 22.5t16.5 13.5h26q11 0 16 -11.5t5 -19.5v-158q0 -8 -5 -19.5t-16 -11.5q-26 0 -28 0.5t-3 0.5zM144 469q-8 4 -12 13t-4 17v158q0 8 5 19.5t16 11.5h28q10 0 14.5 -11t4.5 -18v-162q0 -8 -5 -18.5t-15 -10.5q-28 0 -29.5 0.5 t-2.5 0.5z" />
<glyph unicode="#" d="M197 565q15 0 27 9t12 26v53q0 10 4.5 22.5t17.5 12.5h25q11 0 16.5 -11t5.5 -19v-63q0 -1 1 -3.5t2 -4.5q5 -14 16 -18l25 -11q10 -5 16.5 -11t9 -15.5t2.5 -27.5q0 -9 -0.5 -19.5t-5.5 -18.5q-6 -9 -15 -14t-18.5 -9.5t-17.5 -10t-12 -15.5q-1 -2 -2 -4.5t-1 -3.5 q0 -111 1 -113.5t2 -4.5q5 -14 16 -19q15 -7 25 -11t16.5 -10t9 -15.5t2.5 -27.5q0 -10 -0.5 -20t-5.5 -18q-6 -10 -15 -15t-18.5 -9t-17.5 -9.5t-12 -15.5q-1 -2 -3 -8v-59q0 -8 -4.5 -19.5t-15.5 -11.5h-29q-6 0 -9.5 4t-6 10t-3.5 12t-1 10v49q0 17 -12 26t-27 9 q-25 0 -35 -21q-1 -2 -2 -4.5t-1 -3.5v-61q0 -1 -1.5 -7.5t-2.5 -8.5q-2 -5 -6 -9.5t-9 -4.5h-30q-6 0 -10 5.5t-6 10.5q-1 4 -2.5 11t-1.5 8v56q0 1 -1 3.5t-2 4.5q-5 11 -17 17l-22 11q-11 6 -19.5 14t-8.5 23v41q0 14 8.5 21.5t19.5 12.5t22.5 11t16.5 17q0 2 2 7v114 q0 13 -11 20t-23.5 13t-23.5 14.5t-11 24.5v41q0 14 8.5 21.5t19.5 13.5l23 11q11 5 16 16q1 2 3 7v63l4 16q2 5 6 10.5t10 5.5h29q10 0 15 -10.5t5 -18.5q0 -66 1 -68.5t2 -4.5q10 -21 35 -21zM197 439q-11 0 -24.5 -7t-13.5 -21v-114q0 -14 13.5 -21t24.5 -7q15 0 27 9 t12 25v101q0 17 -12 26t-27 9z" />
<glyph unicode="$" horiz-adv-x="401" d="M21 218q1 7 5.5 17t13.5 10h29q11 0 16 -12q5 -11 7 -22t6 -22q11 -31 40.5 -47.5t61.5 -16.5t60 16t42 45l4 10q2 6 2 13q0 6 -2 11l-4 11q-12 25 -30.5 37.5t-40.5 18.5t-46.5 9t-47.5 8q-9 2 -18 7l-17 11q-22 14 -37.5 35t-25.5 46t-14.5 51.5t-4.5 50.5 q0 25 4.5 51.5t14.5 51t25.5 45.5t37.5 36q12 8 29.5 15t26.5 20q2 2 4.5 8.5t3.5 9.5q0 1 0.5 4.5t0.5 7.5q0 5 0.5 9t0.5 5q1 5 6 13t12 8h27q9 0 13.5 -6t6 -14t2 -16.5t1.5 -13.5q3 -11 11 -19t18.5 -14t21.5 -11t20 -11q18 -14 31.5 -34t22.5 -42.5t14 -46.5t5 -45v-20 q-2 -8 -5 -17.5t-14 -9.5h-31q-8 0 -11.5 7.5t-5.5 13.5q-1 2 -4 14.5t-4 14.5q-5 17 -16 30t-25.5 22t-31 13.5t-32.5 4.5t-34.5 -6t-34.5 -16.5t-26.5 -25.5t-10.5 -33q0 -11 3.5 -20.5t8.5 -18.5q10 -17 25.5 -26.5t33.5 -14.5t36.5 -7.5t35.5 -5.5q37 -6 64.5 -26 t45 -48.5t26 -63t8.5 -68.5q0 -23 -4.5 -48.5t-13.5 -49.5t-23 -45.5t-33 -35.5q-14 -10 -33 -18t-29 -20q-6 -8 -9 -18q-1 -4 -1.5 -12t-2 -16.5t-5.5 -14.5t-12 -6h-29q-8 0 -12.5 7.5t-5.5 13.5q0 2 -1 13t-1 13q-2 12 -11 20.5t-20.5 15t-23 12t-19.5 12.5 q-37 30 -54 75.5t-17 90.5v20z" />
<glyph unicode="%" horiz-adv-x="543" d="M310 158q0 18 2.5 39.5t8.5 41.5t17 37t29 27q5 3 14 6.5t16 3.5h41q7 0 15 -4l14 -7q18 -10 29 -27t17 -37.5t8 -41.5t2 -39q0 -27 -4 -54.5t-16 -49.5t-32.5 -36t-53.5 -14h-16q-2 0 -6 0.5t-9 1.5q-24 7 -38.5 23.5t-23 38.5t-11.5 46t-3 45zM428 691q7 -2 14 -6.5 t7 -13.5v-43q0 -1 -0.5 -3.5t-1.5 -3.5q0 -3 -2 -8.5t-3 -6.5l-271 -557q-4 -8 -11.5 -18.5t-18.5 -10.5h-28q-8 0 -14 9t-6 16q0 35 1 41t3 8q1 3 2.5 8.5t2.5 6.5l276 565q6 12 16 14.5t21 2.5h13zM383 158q0 -11 11.5 -20t22.5 -9t22 8.5t11 19.5q0 12 -11 21.5t-22 9.5 t-22.5 -9.5t-11.5 -20.5zM20 582q3 11 4 22t3 22q11 38 34 60t65 22q35 0 55.5 -14t34.5 -46q7 -14 11 -29.5t4 -29.5v-70q0 -11 -5 -31q-7 -28 -21 -50t-40 -35q-8 -5 -18 -5h-43q-1 0 -6.5 1.5t-7.5 2.5q-30 12 -45.5 38.5t-20.5 57.5q-1 2 -1.5 10t-1.5 10q0 1 -0.5 2.5 t-0.5 2.5v59zM93 553q0 -12 11 -21t22 -9t22.5 9t11.5 21t-11.5 20.5t-22.5 8.5t-22 -9t-11 -20z" />
<glyph unicode="&#x26;" horiz-adv-x="399" d="M20 231q2 5 2.5 13t1.5 13q2 16 8 32l11 31q3 7 10.5 17.5t7.5 18.5t-7.5 18.5t-10.5 17.5q-6 15 -11.5 30.5t-7.5 32.5q-1 5 -1.5 13t-2.5 13v46q2 9 3 18.5t3 19.5q11 40 31 74t57 55q10 6 22.5 11.5t20.5 15.5q2 3 4 8t3 7q1 4 1.5 12.5t2 17t5.5 15t12 6.5h30 q8 0 12 -7.5t5 -13.5q0 -2 1 -12.5t2 -12.5q1 -12 8.5 -20t18 -14t21.5 -11t19 -12q39 -30 58 -76t19 -94v-19q-1 -8 -5 -18t-14 -10h-31q-5 0 -8.5 4.5t-5.5 8.5t-5 16l-4 16q-11 35 -40.5 55t-65.5 20q-30 0 -57 -14.5t-42 -40.5q-3 -7 -5.5 -14t-2.5 -14q0 -11 5.5 -23 t14 -22.5t19 -18t20.5 -10.5l46 -14q23 -8 29 -23t6 -37q0 -23 -6 -37.5t-29 -22.5q-16 -6 -30 -10t-26 -10t-22 -15t-19 -25q-3 -7 -5.5 -14t-2.5 -14q0 -8 2.5 -15t5.5 -13q15 -27 42 -41t57 -14q29 0 57 14t42 40q2 4 4 10t3 10q0 1 1 5.5t2.5 9t2.5 9t1 5.5q2 6 6.5 11 t11.5 5h29q9 0 13.5 -9.5t5.5 -17.5v-19q0 -47 -18.5 -94.5t-58.5 -76.5q-6 -5 -15 -9l-18 -9q-9 -5 -16.5 -10t-11.5 -12l-4 -8q-2 -4 -2 -8q-1 -2 -2 -12.5t-1 -12.5q-1 -6 -5 -13.5t-12 -7.5h-30q-8 0 -12 6.5t-5.5 15t-2 17t-1.5 12.5q-5 17 -20.5 25t-29.5 16 q-37 21 -57 55.5t-31 74.5q-2 9 -3 19t-3 19v46z" />
<glyph unicode="'" horiz-adv-x="108" d="M35 469q-9 3 -12 14.5t-3 18.5v152q0 8 4 21.5t16 13.5h28q11 0 15.5 -12t4.5 -20v-157q0 -8 -4.5 -20t-15.5 -12h-28q-1 0 -2.5 0.5t-2.5 0.5z" />
<glyph unicode="(" horiz-adv-x="182" d="M20 577q3 11 3.5 23.5t3.5 23.5q10 33 30 56t56 23q29 0 38.5 -12t9.5 -39q0 -17 -4 -31t-20 -25l-14 -10l-14 -9q-8 -8 -14 -18t-6 -21v-362q0 -19 8 -29t20 -18l22 -14q11 -7 17 -19q5 -12 5 -18v-19q0 -13 -1.5 -25.5t-14.5 -20.5q-8 -5 -14 -5h-38q-2 0 -6 1.5 t-5 2.5q-29 13 -41 41.5t-17 56.5q-1 5 -1.5 9t-0.5 8t-0.5 8t-1.5 9v433z" />
<glyph unicode=")" horiz-adv-x="178" d="M69 132q7 5 13.5 15t6.5 20v377q0 10 -6 16q-5 9 -15 16l-21 14q-11 8 -19 16.5t-8 19.5v47q0 6 4 11.5t8 8.5q8 6 17 7t17 1q33 0 53.5 -20t29.5 -52q3 -9 6 -21t3 -22v-457q0 -13 -4 -28l-7 -27q-2 -8 -8 -19t-14.5 -21.5t-18.5 -18t-20 -7.5h-39q-10 0 -18.5 9 t-8.5 18v48q0 10 7.5 18.5t14.5 13.5q3 2 13.5 8.5t13.5 8.5z" />
<glyph unicode="*" horiz-adv-x="314" d="M58 386q0 20 6 37t15 34v4q0 5 -3.5 8t-7.5 6l-14 9l-14 9q-7 6 -13.5 14.5t-6.5 19.5v44q0 16 16 21.5t28 5.5q10 0 18.5 -0.5t18.5 -0.5t14.5 6.5t6.5 15.5v8q0 8 1 18t1 13q0 8 3.5 19t14.5 11h27q8 0 12.5 -6t7 -14.5t3 -18.5t0.5 -19t2 -17q2 -4 5.5 -9.5t7.5 -5.5 h58q10 0 15.5 -5t8.5 -12.5t4 -16t1 -15.5q0 -17 -4.5 -32t-20.5 -26q-8 -6 -19 -12t-18 -15v-2q0 -5 1 -6q10 -20 15 -33.5t5 -35.5v-12q0 -10 -3.5 -20t-14.5 -10h-32q-8 0 -14 6.5t-11 14.5l-11 14q-5 6 -11 6q-5 0 -10 -5t-10.5 -11.5t-9.5 -12.5t-7 -9q-4 -4 -12 -4 h-12q-23 0 -30 9.5t-7 32.5z" />
<glyph unicode="+" horiz-adv-x="325" d="M20 371q4 24 17.5 31.5t28.5 9.5l31 4q16 2 25 16l3 7q3 5 3 6v63q0 8 5 20t15 12h29q11 0 15.5 -13.5t4.5 -21.5q0 -63 2 -67l3 -6q7 -12 20.5 -15t28 -4.5t28 -5t21.5 -17.5q5 -8 5 -14v-41q0 -8 -5 -16q-9 -14 -23 -18.5t-28 -6.5t-27 -5t-20 -14l-5 -10v-59 q0 -1 -1 -7t-2 -10q-2 -5 -5.5 -11.5t-10.5 -6.5h-30q-10 0 -15 12t-5 20v59q0 1 -3 6l-3 7q-8 12 -22 14q-18 4 -33 6.5t-25.5 8t-16 17t-5.5 34.5v16z" />
<glyph unicode="," horiz-adv-x="108" d="M37 -123q-10 5 -13.5 14.5t-3.5 20.5v149q0 4 1 10t3.5 12t6.5 10t10 4h26q11 0 16 -11.5t5 -19.5v-159q0 -9 -5 -20t-16 -11q-26 0 -27.5 0.5t-2.5 0.5z" />
<glyph unicode="-" horiz-adv-x="324" d="M69 295q-7 1 -15.5 4t-16 7.5t-12.5 11t-5 15.5q0 46 0.5 47.5t0.5 2.5q8 20 25 26t37 6h158q14 0 33 -4.5t26 -20.5q1 -2 2.5 -6t1.5 -5v-46q0 -3 -2 -8.5t-4 -7.5q-13 -15 -30.5 -19t-36.5 -4h-141q-2 0 -9.5 0.5t-11.5 0.5z" />
<glyph unicode="." horiz-adv-x="105" d="M20 77q1 7 5.5 14t12.5 7h27q8 0 14 -7t6 -15v-33q0 -8 -6 -15t-14 -7h-27q-11 0 -14.5 9.5t-3.5 19.5v11v16z" />
<glyph unicode="/" horiz-adv-x="397" d="M20 62q0 11 1 22.5t6 21.5l274 561q8 15 16.5 19.5t24.5 4.5t24 -3.5t11 -20.5v-18q0 -14 -1.5 -26t-8.5 -25l-275 -561q-3 -6 -10 -11t-14 -5h-27q-8 0 -12 4.5t-6 11t-2.5 13.5t-0.5 12z" />
<glyph unicode="0" d="M195 710q17 0 33 -1t33 -6q31 -10 53.5 -31t36.5 -48t20.5 -58.5t6.5 -62.5v-25v-34v-52q0 -29 -0.5 -61t-0.5 -61v-52v-34q-1 -26 -9 -54t-22.5 -53t-36 -43.5t-48.5 -25.5q-4 -1 -14.5 -3t-13.5 -3q-1 0 -4.5 -0.5t-4.5 -0.5h-58q-10 0 -19.5 2.5t-17.5 6.5 q-42 15 -66.5 50.5t-35.5 77.5q-1 3 -3 14t-3 14q0 2 -0.5 6.5t-0.5 6.5v356q0 16 5 32.5t10 30.5q17 46 51 76.5t83 35.5h26zM196 587q-51 0 -79.5 -30.5t-28.5 -81.5v-238q0 -48 29 -80.5t78 -32.5q22 0 42.5 7t36.5 20.5t25.5 32.5t9.5 42v254q0 49 -32 78t-81 29z" />
<glyph unicode="1" horiz-adv-x="108" d="M35 24q-10 5 -12.5 15t-2.5 20v594q0 7 4 20.5t14 13.5h29q12 0 16.5 -13.5t4.5 -22.5v-591q0 -9 -4 -23t-17 -14q-29 0 -30 0.5t-2 0.5z" />
<glyph unicode="2" horiz-adv-x="399" d="M21 235q2 25 9.5 52t21.5 50t33.5 41.5t45.5 27.5q16 6 33 9l33 5q17 2 33.5 5.5t31.5 11.5q17 9 31 27.5t14 38.5q0 18 -11 35q-14 26 -42.5 38t-56.5 12q-29 0 -54 -13t-39 -39q-5 -8 -10 -25q-1 -2 -3.5 -12t-2.5 -12q-2 -5 -6 -12t-10 -7h-32q-8 0 -13 8.5t-5 14.5 v51q0 2 1.5 10.5t2.5 11.5q7 28 19 53.5t29.5 45.5t41.5 32.5t54 15.5h27q60 0 102.5 -24t63.5 -82l10 -32q6 -18 6 -35v-64q0 -10 -3 -23.5t-6 -23.5q-6 -22 -17 -43t-26 -38t-35 -29t-44 -16l-72 -11q-42 -6 -64 -37.5t-22 -70.5q0 -25 11 -38t33 -20q1 0 5 -1t10.5 -2 t7.5 -1h159q8 0 19 -2t20.5 -6.5t16.5 -12t7 -17.5v-43q0 -9 -5.5 -16t-12.5 -13q-10 -9 -26.5 -10.5t-28.5 -1.5h-72h-72q-17 0 -35.5 1.5t-35.5 8.5q-27 12 -41 33t-20.5 47t-7.5 54t-1 52v41z" />
<glyph unicode="3" d="M20 198q0 4 0.5 12t2.5 15.5t6 13t11 5.5h28q8 0 13 -7.5t7 -14.5l4 -20q2 -9 7 -18q13 -29 40.5 -44.5t58.5 -15.5q29 0 56 13t42 39q10 16 10 32q0 24 -17.5 43t-37.5 29q-3 1 -9.5 3t-13.5 4.5t-13.5 4.5t-9.5 3q-11 4 -24.5 14t-13.5 24v46q0 14 11.5 23t22.5 14 q29 8 54 18.5t41 37.5q10 16 10 32q0 15 -10 31q-14 27 -42.5 39.5t-57.5 12.5q-30 0 -54.5 -14t-40.5 -40l-4 -12l-4 -10q-1 -2 -3 -10.5t-2 -10.5q-2 -6 -6 -14.5t-11 -8.5h-31q-11 0 -14.5 11.5t-4.5 19.5v17q0 25 5.5 51.5t17 50.5t29 44t41.5 33q12 7 26.5 11.5 t28.5 4.5h53q10 0 23 -3l21 -5q11 -3 22 -10l19 -12q29 -20 44.5 -53.5t22.5 -65.5q1 -4 2.5 -13.5t1.5 -11.5v-61q0 -32 -12 -61.5t-26 -55.5v-4q13 -25 25.5 -55t12.5 -59v-61q0 -2 -1.5 -12.5t-2.5 -14.5q-10 -52 -38.5 -92t-82.5 -54q-17 -5 -29 -5h-57q-22 0 -41 10 q-2 1 -10 4.5t-10 5.5q-10 5 -18.5 13.5t-16.5 17.5q-26 28 -38.5 68.5t-12.5 77.5z" />
<glyph unicode="4" horiz-adv-x="399" d="M378 658q0 -79 0.5 -153t0.5 -152v-39v-52q0 -37 -0.5 -78.5t-0.5 -78.5v-52q-2 -8 -5.5 -19t-14.5 -11h-27q-7 0 -11.5 6t-6.5 11l-2 11q-2 6 -2 7q0 204 -1 207t-2 5q-5 11 -16 16t-23 6l-137 2q-48 1 -73.5 33t-32.5 77q-1 5 -2.5 18.5t-1.5 15.5v211q0 9 4 24t17 15 h28q9 0 14 -11.5t5 -18.5v-189q0 -13 6.5 -23t16.5 -17t22 -10.5t24 -3.5h110q12 0 23 5.5t16 16.5q1 2 2 4.5t1 3.5v208q0 1 1.5 8t2.5 10q2 6 6.5 11.5t11.5 5.5h27q11 0 14.5 -11t5.5 -19z" />
<glyph unicode="5" d="M21 60q0 9 -0.5 13.5t1.5 12.5q6 20 25 26.5t38 6.5h17q13 0 27 0.5t26 0.5h18q16 1 34.5 4t35.5 9.5t31.5 17t23.5 26.5q5 8 7.5 15t2.5 17q0 14 -7 26t-17 22q-15 15 -35 23.5t-40 11.5q-23 2 -45.5 1.5t-44.5 3.5q-38 6 -58.5 27.5t-31.5 58.5q-4 11 -5.5 21.5 t-2.5 21.5v22q0 16 -0.5 33.5t-0.5 33.5v22v19q0 34 6 63t20 49t38.5 31.5t61.5 11.5h168q9 0 20 -1.5t21 -6t16.5 -12t6.5 -19.5v-39q0 -19 -17 -30t-34 -12l-177 -2q-21 0 -41 -12t-20 -36v-71q0 -2 1.5 -9t3.5 -10q9 -19 26 -26t37 -8.5t40 -1t35 -2.5q135 -29 146 -167 v-35q0 -17 -0.5 -33t-3.5 -33q-11 -57 -46 -93.5t-92 -47.5q-27 -5 -54.5 -5.5t-54.5 -0.5q-12 0 -28.5 -0.5t-31.5 2.5t-27.5 10.5t-17.5 23.5q-2 5 -1.5 13.5t0.5 12.5z" />
<glyph unicode="6" horiz-adv-x="399" d="M21 203v42q-1 22 -1 41v28v40v39v28q0 21 0.5 44t0.5 43v28q0 2 0.5 7t0.5 7q6 30 17.5 58t29.5 49.5t43.5 35.5t58.5 17h25q18 0 33 -1t33 -6q16 -4 31 -14q23 -13 39 -32.5t26.5 -43t15 -49.5t4.5 -51v-12q0 -11 -3.5 -22.5t-15.5 -11.5h-29q-7 0 -11.5 7t-6.5 12 q0 1 -1 4.5t-2 8t-2 8.5t-1 5q-10 36 -41 55.5t-67 19.5q-51 0 -87 -39q-15 -18 -18.5 -40t-3.5 -45q0 -22 9.5 -34.5t32.5 -12.5l96 -3q8 0 18 -2t16 -4q26 -7 45.5 -23t34 -37.5t23.5 -46.5t13 -50q2 -11 1.5 -20.5t-0.5 -20.5q0 -31 -5.5 -61t-18 -56.5t-33.5 -47.5 t-52 -33q-10 -4 -22 -7t-23 -3h-56q-10 0 -19.5 2.5t-18.5 6.5q-24 9 -42.5 25t-31.5 37t-21.5 45t-12.5 48q0 2 -0.5 6t-0.5 5v27zM89 247q0 -13 0.5 -26t4.5 -25q11 -34 40 -53t64 -19q26 0 50.5 11t41.5 31q7 8 11.5 19t4.5 22q0 19 -10.5 34.5t-26 26.5t-34.5 17.5 t-36 6.5h-68q-23 0 -32.5 -12.5t-9.5 -32.5z" />
<glyph unicode="7" horiz-adv-x="414" d="M167 45q0 2 -0.5 9.5t-0.5 9.5q0 4 1 18q0 3 2 13.5t4 14.5l141 459v2q0 9 -14 13t-20 5l-208 2q-8 0 -21 5q-21 10 -25.5 22.5t-4.5 33.5q0 7 -0.5 13t1.5 12q5 21 25 27.5t38 6.5h211q34 0 58 -11.5t35 -46.5q5 -13 5 -26v-56q0 -1 -0.5 -5t-0.5 -6q-1 -4 -2.5 -11 t-1.5 -9l-150 -487q-2 -8 -8 -19.5t-17 -11.5h-28q-9 0 -13 8t-6 15z" />
<glyph unicode="8" horiz-adv-x="399" d="M20 209q0 27 5 54t16 52q4 9 11.5 19.5t7.5 20.5q0 11 -7.5 21.5t-11.5 19.5q-11 26 -16 53t-5 56q0 26 5 53.5t16 53t28 46.5t42 35q14 7 29 12t30 5h52q13 0 25.5 -3.5t24.5 -7.5q30 -11 50 -32t33 -48t18.5 -57.5t5.5 -58.5q0 -47 -17 -100q-1 -2 -3.5 -7.5t-3.5 -7.5 l-6 -11l-6 -12l-2 -5q-1 -1 -1 -5q0 -3 1 -4l2 -5q18 -36 27 -67t9 -72q0 -28 -5.5 -58.5t-18.5 -57.5t-33 -48t-50 -31q-11 -4 -24 -7.5t-25 -3.5h-55q-14 0 -29.5 5.5t-27.5 11.5q-25 13 -42.5 34.5t-28 47.5t-15.5 54.5t-5 54.5zM93 207q0 -5 2 -11t4 -11q14 -29 40 -45 t57 -16q16 0 35.5 5.5t36 16t27.5 26t11 35.5q0 8 -2 16q-12 34 -42.5 51t-65.5 17q-17 0 -35.5 -5.5t-32.5 -16.5l-12 -12q-7 -7 -11 -14q-5 -9 -8.5 -17.5t-3.5 -18.5zM93 503q0 -5 2 -11t4 -11q14 -29 40 -45t57 -16q16 0 35.5 5.5t36 16t27.5 26t11 35.5v7q0 -1 -2 9 q-12 34 -42.5 51t-65.5 17q-17 0 -35.5 -5.5t-32.5 -17.5q-5 -4 -12 -11t-11 -14q-5 -9 -8.5 -17.5t-3.5 -18.5z" />
<glyph unicode="9" horiz-adv-x="400" d="M268 292q-28 0 -53.5 1t-51.5 6q-51 8 -88 43.5t-48 86.5q-5 20 -5.5 40.5t-0.5 41.5v25l6 42q5 15 10.5 29t13.5 28q5 10 13 18l16 16q31 29 71 35t80 6q35 0 63.5 -4.5t53.5 -32.5q14 -17 22 -45t9 -49v-37q0 -26 0.5 -56t0.5 -57v-36v-39q0 -75 -0.5 -150.5 t-0.5 -148.5q-1 -7 -4.5 -19.5t-14.5 -12.5h-30q-11 0 -15 13.5t-4 21.5v198q0 19 -13.5 26.5t-29.5 9.5zM91 503q0 -11 4.5 -21.5t11.5 -18.5q26 -30 64 -39t75 -9h22q16 2 29.5 9t13.5 27v36q0 28 -1.5 47.5t-9.5 31.5t-25 17t-48 5q-33 0 -67.5 -9t-54.5 -39 q-6 -9 -10 -18t-4 -19z" />
<glyph unicode=":" horiz-adv-x="104" d="M33 22q-5 2 -9 7.5t-4 11.5v38q0 5 5.5 12t11.5 7h28q8 0 13.5 -7t5.5 -14v-35q0 -7 -5.5 -14t-13.5 -7q-28 0 -29.5 0.5t-2.5 0.5zM33 464q-5 2 -9 7t-4 11v38q0 6 5.5 13t11.5 7h28q8 0 13.5 -7t5.5 -14v-36q0 -7 -5.5 -13.5t-13.5 -6.5h-28h-2q-1 0 -2 1z" />
<glyph unicode=";" horiz-adv-x="108" d="M36 -123q-11 5 -13.5 18t-2.5 22q0 148 2 154l2 10q1 5 5.5 10.5t10.5 5.5h28q11 0 15.5 -11t4.5 -19v-161q0 -7 -4.5 -18.5t-14.5 -11.5q-29 0 -30.5 0.5t-2.5 0.5zM36 466q-5 2 -9.5 8.5t-4.5 11.5v36q0 7 6 14t13 7h26q9 0 15 -8t6 -16v-31q0 -6 -5.5 -14.5 t-13.5 -8.5q-28 0 -30 0.5t-3 0.5z" />
<glyph unicode="&#x3c;" d="M20 356q0 36 14 57.5t46 36.5l216 98q8 3 17 4t17 1q27 0 37.5 -11t10.5 -39q0 -22 -8.5 -38.5t-28.5 -26.5l-159 -74q-2 -1 -6 -3.5t-4 -4.5t4 -5t6 -3l159 -74q21 -10 29 -27.5t8 -39.5q0 -16 -6 -32t-26 -16h-31q-2 0 -9 1.5t-10 3.5l-218 99q-32 14 -45 36t-13 57z " />
<glyph unicode="=" horiz-adv-x="326" d="M21 282q0 8 -0.5 13t1.5 13q2 10 9 16.5t16 10t19 5t19 1.5h158q9 0 20 -2t20.5 -6.5t16 -12t6.5 -19.5v-38q0 -5 -2.5 -11t-5.5 -10q-11 -15 -29.5 -18.5t-35.5 -3.5h-140q-21 0 -43 6.5t-28 30.5q-2 8 -1.5 12.5t0.5 12.5zM21 430q0 8 -0.5 13t1.5 12q2 10 9 17 t16 10.5t19 5t19 1.5h158q9 0 20 -2t20.5 -6.5t16 -12t6.5 -19.5v-38q0 -5 -2.5 -11t-5.5 -10q-11 -15 -29.5 -18.5t-35.5 -3.5h-140q-21 0 -43 6.5t-28 30.5q-2 8 -1.5 12.5t0.5 12.5z" />
<glyph unicode="&#x3e;" horiz-adv-x="397" d="M226 356q0 2 -8 7l-160 74q-13 6 -25.5 19.5t-12.5 29.5q0 35 1.5 40.5t2.5 7.5q4 13 17.5 16t24.5 3q9 0 18 -0.5t17 -4.5l230 -105q27 -12 36.5 -36t9.5 -51t-9.5 -51t-36.5 -36l-230 -105q-8 -4 -17.5 -4.5t-17.5 -0.5q-11 0 -24.5 2.5t-17.5 16.5q-1 2 -4 13v35 q0 16 12.5 29.5t25.5 19.5q160 74 164 76.5t4 4.5z" />
<glyph unicode="?" horiz-adv-x="399" d="M182 22q-5 2 -9.5 6.5t-4.5 10.5v41q0 6 5.5 12.5t11.5 6.5h29q7 0 12 -7t5 -13v-38q0 -8 -5.5 -14t-13.5 -6h-27zM306 509q-8 36 -39.5 57t-67.5 21q-28 0 -55 -13t-41 -38q-2 -2 -4.5 -8t-3.5 -8q0 -1 -1 -5.5t-2.5 -9.5t-2.5 -10t-1 -6l-6 -14q-3 -8 -11 -8h-33 q-7 0 -10.5 6t-5 14t-2 15.5t-0.5 11.5q0 27 7.5 57t22 57t36 47.5t50.5 28.5q17 5 31.5 6.5t31.5 1.5q19 0 36 -2t34 -8q30 -11 51 -32.5t34 -49.5t19 -58.5t6 -59.5q0 -38 -12.5 -81.5t-38.5 -72.5l-9 -8q-6 -7 -8 -10q-1 0 -3 -2t-3 -2l-11 -7q-8 -6 -10 -7 q-13 -8 -26.5 -14.5t-20.5 -21.5q-1 -2 -3 -7v-67q0 -1 -1.5 -7t-2.5 -9q-2 -5 -6.5 -10t-9.5 -5h-29q-12 0 -16 13.5t-4 21.5q0 168 1.5 173t2.5 8q3 11 13.5 18.5t23.5 12.5t26 8.5t21 6.5q20 8 36.5 28t16.5 43v5z" />
<glyph unicode="@" horiz-adv-x="617" d="M26 261q0 4 -1 14.5t-2 22.5t-2 22.5t-1 14.5v22v21q0 4 1 15l2 22l2 22q1 11 1 15q12 75 53 139t113 96q13 6 27 11t28 8q5 1 17 3t14 2h59q2 0 9.5 -1t10.5 -2q103 -20 161.5 -89.5t73.5 -170.5q3 -23 4 -44.5t1 -44.5v-31q0 -2 -0.5 -6.5t-0.5 -6.5l-8 -34 q-4 -18 -12 -35q-20 -42 -49 -65t-74 -31q-3 -1 -10.5 -2t-9.5 -1h-131q-58 0 -98 30.5t-59 84.5q-6 17 -9 34t-7 34v53q4 18 6.5 34.5t9.5 33.5q16 45 46 74t76 37q3 1 9.5 2t7.5 1h50q1 0 7.5 -1t9.5 -2q36 -6 62 -26.5t43 -49t25 -62t8 -66.5q0 -10 -0.5 -19.5 t-0.5 -19.5t6 -10q5 0 11 6q13 11 17.5 27t4.5 31q0 34 -11 65.5t-30.5 58t-46.5 47t-58 31.5q-17 6 -35 10.5t-37 4.5q-23 0 -45 -6.5t-43 -14.5q-32 -13 -56.5 -35.5t-41.5 -50.5t-25.5 -60.5t-8.5 -65.5q0 -81 44 -140.5t122 -83.5q2 -2 12.5 -4t13.5 -3q4 -1 13 -2 l16 -2q8 -1 14.5 -1.5t7.5 -0.5h128q9 0 19 -1.5t19 -5.5t16 -10.5t9 -16.5q2 -8 1.5 -12.5t-0.5 -13.5t0.5 -13t-1.5 -12q-3 -12 -11 -19.5t-18.5 -11.5t-22 -5t-21.5 -1h-56h-65q-33 0 -64 6q-103 20 -163 87t-76 170zM201 357q0 -6 3 -12l4 -11q13 -29 41.5 -45t59.5 -16 q27 0 54 12.5t41 37.5q11 17 11 34q0 7 -1.5 12t-4.5 12q-13 29 -41 44t-58 15q-32 0 -60.5 -15.5t-41.5 -44.5l-4 -12q-3 -6 -3 -11z" />
<glyph unicode="A" horiz-adv-x="394" d="M119 527l2 9l27 119q3 11 11 26t22 15h31q10 0 17 -7t11.5 -16.5t7 -20.5t4.5 -18l26 -115v-8l83 -365q1 -1 2 -4t1 -4l2 -13l3 -15q2 -8 5 -19v-50q0 -5 -5 -11.5t-11 -6.5h-31q-8 0 -13 7.5t-7 14.5q-1 3 -3 12t-4.5 19t-4.5 19t-3 12q-10 37 -49 37h-92q-37 0 -48 -35 q-1 -3 -2.5 -10.5t-4 -16.5t-4 -16.5t-2.5 -10.5q-2 -8 -7 -20t-16 -12h-30q-7 0 -12 6.5t-5 13.5q0 45 1 51t2.5 13.5t3.5 15.5t3 13q0 2 1 5t1 4zM144 282q0 -1 3 -3.5t5 -4.5q2 -1 6 -2.5t6 -1.5q2 -1 7.5 -2t6.5 -1h38q8 0 21.5 4.5t13.5 15.5q0 3 -0.5 5t-1.5 5 l-33 148q-1 5 -4.5 13t-5.5 12q-1 2 -3.5 7.5t-5.5 5.5q-2 0 -4.5 -4.5t-5.5 -10.5t-5 -11t-2 -6l-36 -157v-12z" />
<glyph unicode="B" d="M207 711q20 0 33 -4q38 -9 64 -27.5t42.5 -45t24 -59.5t7.5 -71q0 -25 -3 -53.5t-15 -51.5q-1 -2 -4 -7l-5 -12q-3 -7 -6 -12.5t-4 -7.5v-8q20 -34 28.5 -69.5t8.5 -74.5q0 -34 -6.5 -66t-21.5 -59t-39 -46.5t-60 -28.5q-3 -1 -12 -3t-11 -2q-5 -1 -16 -2.5t-13 -1.5h-66 q-1 0 -7.5 1t-9.5 1q-38 8 -58.5 30.5t-31.5 58.5q0 1 -1 4t-1 4q-1 5 -2.5 15.5t-1.5 12.5v457q0 20 6 39.5t15 36.5q10 21 24.5 31.5t32 15t37 5t39.5 0.5h33zM306 208q0 19 -11 34.5t-28 27t-36.5 17.5t-35.5 6h-65q-9 0 -19.5 -3.5t-15.5 -11.5q-2 -2 -4 -7t-2 -6v-99 q0 -10 6 -16q11 -17 30 -23.5t38 -6.5q17 0 36.5 2.5t38 9t34 17.5t24.5 28q5 8 7.5 15t2.5 16zM146 589q-14 -2 -28 -6.5t-22 -18.5q-2 -4 -4.5 -9.5t-2.5 -10.5v-101q0 -1 2 -5.5t4 -6.5q6 -8 16 -10.5t19 -4.5h21q18 0 39 2t41.5 8t37.5 17.5t27 29.5q5 8 7.5 15t2.5 16 q0 16 -10 32q-19 33 -55 43t-70 10h-25z" />
<glyph unicode="C" d="M20 537q3 13 5.5 25.5t5.5 25.5q3 11 7.5 21t9.5 20q28 47 63.5 65t88.5 18q19 0 37 -2t35 -9q27 -12 46.5 -32t33 -45t20 -53t6.5 -56q0 -4 -0.5 -12t-2 -15.5t-5.5 -13.5t-11 -6h-29q-9 0 -13.5 8t-6.5 15q0 1 -1 5.5t-2.5 9.5t-2.5 9.5t-1 5.5q-5 16 -16 28.5 t-25.5 20.5t-31 12.5t-32.5 4.5q-20 0 -39 -7t-35 -19.5t-25.5 -30t-9.5 -38.5v-272q0 -22 9.5 -39.5t25 -30t35 -19t39.5 -6.5q29 0 56 13.5t42 39.5q3 6 5.5 17t6 22t9 19t14.5 8h26q12 0 16.5 -11.5t4.5 -22.5v-13q0 -28 -6.5 -56t-20 -53t-33 -45t-46.5 -32 q-18 -8 -36.5 -9.5t-37.5 -1.5h-25q-84 9 -125 83q-17 31 -24 69q-1 4 -2.5 12t-1.5 10v363z" />
<glyph unicode="D" d="M20 581q2 8 2 9v10q5 38 24.5 69t59.5 39q15 3 31 3h32q23 0 45 -1t45 -8q28 -8 50.5 -26t37.5 -42t23 -52t8 -56v-347q0 -1 -1.5 -9.5t-2.5 -13.5q-11 -60 -44.5 -102t-94.5 -53q-4 0 -12.5 -1t-10.5 -1h-77q-8 0 -18 2t-17 4q-29 8 -47 30t-26 49q-2 10 -3.5 19.5 t-3.5 18.5v459zM164 120q24 0 50 5.5t47 17.5t34.5 32t13.5 49v277q0 3 -1.5 9.5t-3.5 10.5q-13 31 -44 49.5t-64 18.5h-51q-20 0 -38 -12.5t-18 -34.5v-373q0 -14 7.5 -23.5t19 -15t24.5 -8t24 -2.5z" />
<glyph unicode="E" horiz-adv-x="401" d="M22 128q0 10 -1 37v57t-0.5 56.5t-0.5 37.5v39v40q0 10 0.5 36.5t0.5 56.5t0.5 56t0.5 37q1 16 5.5 36t13 38t21.5 32t32 19q13 4 24.5 5t25.5 1h173q34 0 49 -12t15 -47q0 -19 -6 -35.5t-28 -21.5q-3 -1 -9.5 -2.5t-7.5 -1.5l-182 -2q-20 -1 -39 -14t-19 -36 q0 -96 2 -100l3 -6q5 -9 16 -12.5t21 -4.5q3 0 11 -0.5t17 -1t17 -1t11 -0.5q29 -3 38 -16.5t9 -40.5q0 -29 -10.5 -43t-40.5 -18q-3 0 -10 -0.5t-15.5 -1t-16 -1t-10.5 -0.5q-10 -1 -21 -4t-16 -13l-5 -10v-95q0 -12 7 -21.5t17.5 -16t22.5 -10t23 -3.5h157q34 0 49 -13 t15 -47q0 -38 -18.5 -50.5t-55.5 -11.5h-70q-26 0 -55 -1t-56.5 3.5t-50.5 18t-36 42.5q-16 33 -17 67z" />
<glyph unicode="F" d="M187 413q28 -4 37.5 -17t9.5 -40q0 -32 -11 -44t-40 -18q-3 0 -10.5 -0.5t-15.5 -0.5t-15.5 -0.5t-10.5 -0.5q-13 -1 -23.5 -5.5t-15.5 -16.5l-4 -8v-204q0 -8 -3.5 -21.5t-15.5 -13.5h-29q-7 0 -11.5 6.5t-6.5 12.5q0 3 -1 10.5t-1 8.5v501q0 35 10 66q12 45 39 63.5 t73 18.5h173q8 0 19 -1.5t20.5 -5.5t16.5 -11.5t7 -18.5v-43q0 -17 -17 -28t-33 -12l-181 -2q-21 0 -39.5 -13.5t-18.5 -37.5v-92q0 -15 15 -22t27 -8q3 0 11 -0.5t17 -0.5t17 -0.5t11 -0.5z" />
<glyph unicode="G" d="M200 587q-21 0 -41 -7.5t-35.5 -21t-25 -32.5t-9.5 -41v-258q0 -23 9 -41.5t24.5 -32.5t35.5 -21.5t42 -7.5q16 0 33 5t32 14t25.5 22t14.5 30q4 13 4 36q0 24 -7.5 36.5t-19.5 17.5t-27 5.5t-30 2t-28.5 6t-22.5 17.5q-2 3 -4.5 9t-2.5 11v40q0 10 6 18q13 17 33.5 19 t39.5 2q15 0 31 -0.5t30 -6.5q31 -11 45.5 -37.5t21.5 -55.5q0 -2 1 -7.5t2 -7.5q0 -2 1 -11v-119q0 -1 -0.5 -5t-0.5 -6q-5 -23 -13.5 -46t-21.5 -43t-31 -35.5t-42 -24.5q-10 -4 -21.5 -7t-22.5 -3h-51q-1 0 -4.5 0.5t-5.5 0.5q-54 11 -84.5 40.5t-47.5 81.5 q-5 16 -8.5 33t-3.5 34v331q0 10 2 22.5t4 21.5q4 22 13 44t23.5 41t33 33.5t41.5 20.5q2 1 10.5 3t10.5 2q3 1 9.5 2t7.5 1h50q5 0 16.5 -2t16.5 -4q45 -12 72 -47t39 -77q0 -1 1 -5t2.5 -9t2.5 -10t2 -8q0 -2 1 -8v-50q0 -6 -5 -15t-13 -9h-30q-7 0 -11 6t-7 14t-4.5 16 t-2.5 12q-11 34 -40.5 52.5t-64.5 18.5z" />
<glyph unicode="H" horiz-adv-x="399" d="M21 84v46q0 26 -0.5 54t-0.5 54v46v30v39v40v30v47q0 26 0.5 54.5t0.5 54.5v47v31q1 8 5.5 19.5t15.5 11.5h25q13 0 17.5 -13t4.5 -23v-201q0 -17 13 -26.5t29 -9.5h137q9 0 19.5 4t16.5 12q2 2 4 7.5t2 6.5v210q0 9 5.5 21t16.5 12h27q9 0 13 -9.5t6 -16.5v-44 q0 -31 0.5 -66.5t0.5 -67.5v-43v-88v-87v-43q0 -31 -0.5 -65.5t-0.5 -65.5v-43q-2 -8 -5.5 -17t-13.5 -9h-30q-9 0 -14 12.5t-5 19.5v207q0 1 -2 6.5t-4 7.5q-6 8 -16 12t-20 4h-137q-16 0 -29 -9.5t-13 -26.5v-197q0 -4 -1 -10t-3.5 -12t-6 -10t-9.5 -4h-29 q-11 0 -14.5 11.5t-4.5 19.5v30z" />
<glyph unicode="I" d="M378 654q0 -20 -3.5 -32t-21.5 -23q-5 -4 -12 -5.5t-14 -2.5l-53 -2q-31 -2 -41 -27q0 -1 -1 -5v-405q0 -2 2 -7t3 -6q5 -11 15.5 -14.5t21.5 -4.5l57 -2q16 -2 29 -10q13 -9 15.5 -20.5t2.5 -25.5q0 -39 -17.5 -51.5t-56.5 -12.5h-211q-8 0 -19 1t-21 4t-18 9t-11 16 q-1 2 -4 14v36q0 19 15 29t32 11l54 2q13 1 27.5 8t14.5 23v407q0 16 -14.5 23t-27.5 8l-50 2q-18 2 -34.5 13t-16.5 31v35q0 12 6.5 20t16 12.5t21 6.5t20.5 2h230q33 0 48.5 -12.5t15.5 -44.5z" />
<glyph unicode="J" d="M199 125q16 0 33 4.5t31.5 13.5t25.5 22t15 30l3 15q2 10 2 11v432q0 8 5 21.5t17 13.5h26q11 0 16 -11t5 -19v-480q0 -1 -0.5 -3.5t-0.5 -3.5q-13 -79 -54 -125t-125 -46h-25q-54 6 -88 35.5t-51 80.5q-2 2 -4.5 12.5t-3.5 13.5q-2 6 -4 18t-2 14v46q0 7 6 15.5t14 8.5 h28q9 0 13.5 -9t6.5 -15q2 -8 3.5 -16t4.5 -16q14 -31 42.5 -47t60.5 -16z" />
<glyph unicode="K" d="M152 415q20 0 41.5 2.5t41.5 9t36.5 18.5t27.5 31q4 6 7 14.5t3 16.5l2 155q0 9 5.5 17.5t15.5 8.5h25q10 0 15.5 -10t5.5 -18v-178q0 -20 -4.5 -43.5t-13.5 -41.5q-1 -3 -5.5 -12.5t-6.5 -12.5q-2 -5 -4 -8t-2 -9q0 -5 2 -8t4 -8q14 -26 22 -53t8 -57v-179 q0 -7 -5.5 -17t-13.5 -10h-29q-11 0 -15 11t-4 19l-2 151q0 8 -3 16.5t-7 14.5q-15 26 -44 41.5t-59 15.5h-65q-11 0 -22 -4.5t-16 -15.5q-2 -2 -3.5 -6t-1.5 -5v-203q0 -8 -4.5 -21.5t-14.5 -13.5h-29q-6 0 -10 4t-6 10t-3 12t-1 10v593q0 4 1 10t3 12t6 10t10 4h27 q12 0 16.5 -12.5t4.5 -22.5v-207q0 -1 1.5 -5t3.5 -6q6 -11 16 -14.5t22 -5.5h21z" />
<glyph unicode="L" horiz-adv-x="399" d="M20 160v488q0 4 0.5 11t3 13.5t6.5 11t11 4.5h27q11 0 15.5 -10.5t4.5 -18.5q0 -486 1.5 -492t3.5 -9q10 -28 40 -34q5 -2 13.5 -3.5t10.5 -1.5h158q34 0 49 -12.5t15 -46.5q0 -40 -18.5 -50.5t-55.5 -11.5h-71h-71q-43 0 -75.5 11.5t-50.5 53.5q-5 11 -6.5 22.5 t-6.5 22.5z" />
<glyph unicode="M" horiz-adv-x="469" d="M31 286v8l12 253q1 1 1.5 4.5t0.5 5.5q0 5 1 18l2 28q1 15 2 28t1 18l3 12q1 8 4 15.5t7.5 12.5t12.5 5h33q9 0 16 -7t9 -15l19 -65l2 -6l57 -215q3 -11 8 -21t13 -18q7 6 12 16t7 18l50 192q1 1 1.5 3.5t1.5 3.5q1 3 4 13l5 22l6 22q2 11 3 14q1 6 3.5 13t6.5 14 t10 11.5t14 4.5h29q7 0 13 -5.5t9.5 -13t5.5 -15.5t2 -14l13 -228v-7l18 -311v-21v-26q0 -8 -4 -19t-15 -11h-29q-8 0 -12.5 7.5t-5.5 13.5q0 3 -1 10.5t-1 9.5l-16 285q-1 3 -2 12t-2.5 18.5t-4 18t-5.5 9.5q-1 -1 -2 -2.5t-2 -2.5q-3 -5 -7 -13.5t-6 -14.5l-45 -162 q-2 -7 -5 -16t-7.5 -17t-11.5 -13.5t-16 -5.5h-30q-12 0 -21 10.5t-12 21.5l-20 71q-2 9 -5 18t-5 19q0 1 -1.5 7.5t-4 14t-4 13.5t-1.5 8q-1 2 -3.5 10.5t-4.5 11.5q-1 2 -3.5 9.5t-3.5 9.5q-2 3 -5 9.5t-6 11.5l-1 1q-5 -3 -7.5 -16t-4.5 -19q0 -3 -1 -10t-1 -8l-7 -124 v-7l-5 -96q-1 -1 -1 -5q0 -3 -1 -4q0 -2 -0.5 -10t-0.5 -17t-0.5 -16.5t-0.5 -9.5q0 -1 -1 -7.5t-2 -10.5q-1 -6 -5 -14.5t-12 -8.5h-31q-8 0 -12.5 8t-4.5 14v67z" />
<glyph unicode="N" horiz-adv-x="399" d="M21 108v85q0 48 -0.5 99t-0.5 99v84v56v48v48q0 15 1 27.5t5.5 22t14 15t26.5 5.5q14 0 23 -3.5t15 -10t10 -16.5l9 -21q8 -17 14.5 -34.5t14.5 -35.5q0 -2 3 -5l62 -150q3 -3 3 -5q1 -3 5 -13l8 -20l9 -21q4 -9 5 -11q11 -25 21.5 -51.5t27.5 -47.5q1 0 2 -1q2 0 4 4.5 t3.5 10.5t2.5 11.5t1 7.5v370q0 9 5.5 20.5t16.5 11.5h27q9 0 13 -9t6 -17v-51v-79q0 -43 0.5 -90.5t0.5 -92.5v-78v-51v-76v-76q0 -6 -1.5 -15t-5 -17.5t-9 -14.5t-14.5 -6h-36q-7 0 -14 7t-9 13l-170 398q-2 4 -6 9l-6 11l-8 8q-1 0 -3 -4l-3 -6q-4 -9 -4.5 -21.5 t-0.5 -22.5v-348q0 -7 -4.5 -21t-15.5 -14h-29q-11 0 -14.5 11.5t-4.5 18.5v55z" />
<glyph unicode="O" d="M20 537q2 10 3.5 19.5t3.5 19.5q20 69 60 102.5t112 33.5q60 0 101 -26.5t62 -84.5l10 -34q6 -18 6 -35v-352q0 -17 -5 -35t-11 -34q-22 -60 -62.5 -85.5t-101.5 -25.5h-25q-60 7 -94.5 43t-51.5 93q-2 10 -3.5 19.5t-3.5 19.5v362zM199 587q-20 0 -40 -7t-35.5 -19.5 t-25 -30t-9.5 -39.5v-270q0 -22 9.5 -39.5t25.5 -30t35.5 -19.5t39.5 -7t39.5 7t35.5 19.5t25.5 30.5t9.5 39v268q0 22 -9.5 40t-25 31t-35 20t-40.5 7z" />
<glyph unicode="P" horiz-adv-x="362" d="M162 710q19 0 38 -0.5t37 -5.5q32 -10 52.5 -32t32 -49.5t16 -59t4.5 -60.5t-4 -59t-14.5 -56.5t-29 -48t-48.5 -34.5q-11 -5 -25.5 -7.5t-25.5 -3.5l-64 -2q-13 -1 -23.5 -6t-15.5 -16l-4 -8v-207q0 -8 -4.5 -20t-15.5 -12h-30q-10 0 -14 13.5t-4 21.5v519q0 17 4 34.5 t11 32.5q9 24 21.5 37t28.5 19.5t35 8t42 1.5zM165 588q-19 0 -39 -4t-31 -23l-4 -11q-2 -5 -2 -10v-95q0 -1 1 -3.5t2 -4.5q7 -17 25 -19.5t34 -2.5q21 0 43 4t39 14.5t28 27t11 42.5q0 19 -7 32q-15 32 -40.5 42.5t-59.5 10.5z" />
<glyph unicode="Q" d="M145 0q-3 1 -8 4l-12 7l-13 7l-8 4q-29 17 -47 46.5t-27 60.5q-1 2 -3.5 13.5t-4.5 15.5q0 3 -1 9t-1 7v363q0 2 1 8.5t1 8.5q7 31 19 58.5t30.5 48.5t44 34.5t58.5 16.5h24q58 0 99 -24t62 -81q7 -17 13 -36t6 -38v-354q0 -1 -0.5 -5t-0.5 -6q-8 -43 -26 -80.5 t-55 -63.5q-14 -10 -30 -16t-26 -20q-4 -6 -6 -16l-3 -22q-1 -10 -5 -17.5t-14 -7.5h-28q-8 0 -12 7t-6 16.5t-2.5 18.5t-2.5 14q-6 12 -16 19zM89 222l10 -38q4 -16 25 -33q4 -4 10.5 -7t11.5 -3q6 0 10 5.5t6 10.5q1 4 2 10.5t3.5 12.5t6.5 10.5t10 4.5h28q8 0 12 -6.5 t6.5 -15t5.5 -17.5t11 -15h4q7 0 13 3.5t11 7.5q22 18 28.5 43.5t6.5 52.5v216q0 37 -12 67t-49 45q-12 5 -24.5 8.5t-25.5 3.5q-35 0 -63.5 -18t-41.5 -50q-2 -6 -2.5 -13t-2.5 -13v-272z" />
<glyph unicode="R" horiz-adv-x="362" d="M162 710q28 0 52 -3t44.5 -12t36.5 -26.5t28 -45.5q8 -18 13.5 -39t5.5 -41v-80q0 -29 -9.5 -54t-20.5 -51v-3q0 -8 4.5 -14.5t6.5 -12.5q8 -19 13.5 -40t5.5 -41v-194q0 -8 -4 -19t-15 -11h-29q-8 0 -12 7.5t-6 13.5q0 3 -1.5 9.5t-1.5 7.5v153q0 1 -1 6.5t-2 7.5 q-8 27 -31 45.5t-53 18.5h-55q-12 0 -23 -5.5t-16 -16.5l-4 -8v-209q0 -8 -4.5 -19t-14.5 -11h-29q-8 0 -12 7t-6 13q0 4 -1 12t-1 9v488q0 2 0.5 9t1.5 14.5t1.5 14.5t0.5 10q3 23 13 47t27 41q19 17 46 19.5t52 2.5zM168 588q-14 0 -28 -1.5t-25.5 -7t-18.5 -16t-7 -28.5 v-90q0 -2 1.5 -6.5t3.5 -6.5q8 -14 25.5 -15.5t31.5 -1.5q26 0 53.5 5.5t46.5 26.5q10 12 16 26t6 30q0 23 -10 39q-17 28 -40.5 37t-54.5 9z" />
<glyph unicode="S" horiz-adv-x="401" d="M21 217q2 8 5 18t14 10h29q7 0 11.5 -5.5t6.5 -10.5q0 -5 4 -19t6 -18q4 -17 15 -29.5t25.5 -21t31 -12.5t31.5 -4q31 0 58 14t41 41q4 7 6.5 13.5t2.5 14.5q0 13 -7 26t-17.5 24t-23.5 18.5t-25 10.5q-24 6 -48.5 8.5t-49.5 8.5q-12 3 -23 9.5t-21 13.5 q-20 15 -33.5 35.5t-22.5 44t-13 48.5t-4 48q0 31 6.5 62t20 58t35.5 48t52 33q8 4 20 6.5t22 2.5h49q1 0 8 -1t9 -2q35 -6 61 -25t43 -46t25.5 -59.5t8.5 -65.5q0 -13 -1 -24t-6.5 -15t-6.5 -4.5t-1 -1.5q-1 0 -4 -1h-31q-6 0 -10 5.5t-6 10.5q-4 13 -6.5 25t-8.5 23 q-14 28 -42 42t-57 14t-56.5 -14t-41.5 -40q-4 -7 -6.5 -14t-2.5 -14q0 -9 3.5 -17.5t7.5 -16.5q10 -18 25.5 -28t33 -15.5t36.5 -8t37 -5.5q38 -6 65.5 -25.5t45 -48t26 -63t8.5 -70.5q0 -30 -7 -61.5t-21 -59t-36.5 -49t-53.5 -31.5q-2 0 -10 -2t-11 -3q-2 0 -9 -1t-8 -1 h-49q-2 0 -8.5 1t-9.5 1q-51 10 -79 40.5t-45 78.5q-8 19 -10.5 38t-2.5 39v19z" />
<glyph unicode="T" horiz-adv-x="397" d="M71 591q-30 4 -40.5 18.5t-10.5 43.5v12q0 9 1 12q2 10 9 17t16 10.5t19 5t19 1.5h229q19 0 37 -6t26 -25q0 -1 1 -5v-46q0 -9 -6 -16q-7 -11 -19.5 -15.5t-24.5 -6.5q-20 -1 -38.5 -1.5t-37.5 -7.5q-8 -2 -10.5 -9t-6.5 -13q0 -499 -1 -505.5t-2 -10.5q-2 -6 -5.5 -13.5 t-11.5 -7.5h-30q-5 0 -9 4.5t-6 9.5q-1 3 -2.5 9t-1.5 7q0 505 -1 508t-2 5q-5 12 -16.5 16.5t-23.5 5.5q-3 0 -10 0.5t-15.5 1t-15.5 1t-10 0.5z" />
<glyph unicode="U" d="M88 223q0 -1 1.5 -10.5t3.5 -13.5q8 -36 40 -55t67 -19q36 0 67 21t39 58q1 3 2 9t1 7v436q0 8 4.5 20t14.5 12h30q11 0 15.5 -13t4.5 -21v-476q0 -1 -2.5 -14t-3.5 -21q-11 -51 -42.5 -89t-82.5 -50q-1 -1 -6.5 -1.5t-7.5 -1.5q-2 0 -9 -1h-51q-1 0 -7.5 1t-9.5 1 q-53 10 -84 48t-45 87q0 2 -2.5 13.5t-3.5 16.5q0 2 -0.5 5.5t-0.5 5.5v480q0 9 5 19.5t16 10.5h25q7 0 11 -4t5.5 -9t2.5 -11.5t3 -10.5v-430z" />
<glyph unicode="V" horiz-adv-x="396" d="M104 252l-2 9l-28 121l-2 9l-50 222q-1 5 -1.5 9t-0.5 9v18v10q0 10 4 19.5t15 9.5h28q10 0 15 -9.5t7 -17.5l90 -395q1 -2 2.5 -8t2.5 -8q2 -3 5 -10l6 -11q1 -1 3 -1t5 5q1 2 3.5 6t2.5 5q2 3 4.5 11.5t2.5 10.5l91 395q2 8 6.5 17.5t15.5 9.5h28q11 0 15 -9.5t4 -19.5 v-12v-14q0 -11 -1 -14l-128 -563q-2 -13 -10 -27.5t-24 -14.5h-31q-10 0 -17.5 7.5t-9.5 15.5q-8 23 -12 45.5t-12 45.5z" />
<glyph unicode="W" horiz-adv-x="469" d="M35 337l-6 96v8l-7 133q0 1 -0.5 3.5t-0.5 3.5q-1 5 -1 15v14v28v25q1 8 5 17t14 9h28q8 0 12 -7t6 -16.5t2.5 -19t1.5 -13.5l15 -268q0 -2 1.5 -14t2.5 -17q0 -2 1 -5.5t1 -5.5q2 -3 4 -9t2 -7l2 -1l2 2q1 2 3.5 6t2.5 5q2 5 6 13.5t4 10.5l48 172q6 20 17.5 28.5 t32.5 8.5q20 0 32 -7t17 -27l24 -81v-6l24 -86q1 -1 3.5 -8t4.5 -10q1 -2 4 -8.5t4 -8.5q1 -1 2 -2.5t2 -1.5q5 3 6 11.5t3 13.5q1 2 2 13l20 319q1 7 6 16.5t14 9.5h27q10 0 14 -8t6 -16v-27v-27q0 -2 -0.5 -8.5t-1.5 -14.5l-1 -15v-10q0 -1 -0.5 -4t-0.5 -5l-9 -165v-8 l-13 -254q0 -1 -0.5 -4t-0.5 -4q0 -2 -1 -8l-1 -13l-1 -12v-7q0 -3 -1 -11t-1 -10q-2 -11 -7.5 -25.5t-20.5 -14.5h-32q-8 0 -15 7t-9 14l-35 126q-3 8 -4.5 15.5t-4.5 15.5l-33 125q0 1 -2 6.5t-3 8.5q-2 3 -7 15t-10 12q-9 -7 -14 -19.5t-7 -22.5l-74 -275q-2 -8 -9.5 -18 t-18.5 -10h-30q-10 0 -16.5 7.5t-8.5 15.5q-2 5 -3.5 13.5t-1.5 9.5l-16 264v9z" />
<glyph unicode="X" horiz-adv-x="396" d="M24 100l115 237q2 5 4 9.5t2 9.5t-2 9.5t-4 10.5l-115 237l-4 16v42q0 8 6.5 14.5t14.5 6.5h27q7 0 13.5 -5.5t8.5 -10.5l88 -177q3 -5 8 -12t12 -7q6 0 11.5 7t8.5 12l81 166q5 8 12 17.5t18 9.5h26q8 0 14.5 -6.5t6.5 -14.5v-42q0 -1 -0.5 -3t-0.5 -3q-2 -5 -5 -14.5 t-4 -10.5l-111 -227q-4 -7 -4 -15q0 -7 4 -14l111 -227q1 -1 4 -10.5t5 -14.5q0 -1 0.5 -3t0.5 -3v-42q0 -7 -6 -14t-14 -7h-28q-11 0 -18 9.5t-11 17.5l-81 166q-3 5 -9 11.5t-12 6.5q-2 0 -8.5 -5t-6.5 -7q-1 -2 -4.5 -8.5t-5.5 -8.5l-82 -166q-2 -5 -8.5 -10.5 t-13.5 -5.5h-29q-8 0 -13.5 6.5t-5.5 13.5v43z" />
<glyph unicode="Y" horiz-adv-x="401" d="M20 651q0 4 1 10.5t3 12.5t6 10.5t10 4.5h29q10 0 15 -11t5 -19v-133q0 -2 1.5 -12t2.5 -14q9 -38 39.5 -58.5t67.5 -20.5q40 0 70.5 23t38.5 62q1 4 2 11t1 8v136q0 7 5 17.5t14 10.5h29q8 0 12.5 -7.5t5.5 -14.5q1 -3 2 -12t1 -11v-156q0 -18 -4.5 -38t-12 -39.5 t-17.5 -37t-22 -30.5q-14 -16 -38 -30q-15 -8 -28.5 -14.5t-21.5 -23.5q0 -2 -1.5 -5t-1.5 -4v-212q0 -9 -5 -20t-16 -11h-25q-9 0 -15.5 9.5t-6.5 17.5v211q0 12 -6 20.5t-14.5 14.5t-18.5 10.5t-18 9.5q-34 20 -54 54.5t-29 71.5q-2 10 -3 20t-3 19v170z" />
<glyph unicode="Z" horiz-adv-x="410" d="M127 320q6 14 16.5 26t15.5 27l78 125l2 5l45 73l-1 4q-1 0 -4.5 1.5t-5.5 3.5q-8 3 -19 3l-177 3q-8 0 -21 5q-20 8 -25 22t-5 34v12v5q0 5 1 8q2 10 9 16.5t16 10t19 5t19 1.5h212q49 0 68.5 -20.5t19.5 -69.5q0 -19 -2.5 -38.5t-12.5 -36.5q-249 -408 -250 -410t-1 -3 h-1l1 -1q4 -5 13 -8.5t16 -3.5h165q9 0 20 -1.5t21 -6t16.5 -12t6.5 -18.5v-41q0 -14 -7.5 -22t-18.5 -12.5t-23 -6t-22 -1.5h-181q-14 0 -30.5 1t-31.5 6t-26.5 14t-16.5 26q-5 13 -5 23v51q0 11 6 28t12 27z" />
<glyph unicode="[" horiz-adv-x="181" d="M63 0q-17 4 -30 15.5t-13 31.5v619q0 18 14.5 31t32.5 13h49q15 0 30 -11t15 -27v-38q0 -16 -9 -24t-21 -13.5t-23.5 -11.5t-15.5 -18q-1 -2 -3 -7v-410q0 -13 11 -19.5t24.5 -12.5t25 -14.5t11.5 -24.5v-38q0 -19 -17 -30.5t-34 -11.5h-39q-1 0 -3.5 0.5t-4.5 0.5z" />
<glyph unicode="\" horiz-adv-x="396" d="M342 21q-15 0 -24.5 5.5t-17.5 19.5l-269 549q-3 6 -7 17t-4 18v40q0 8 6.5 15t14.5 7h27q11 0 18.5 -11t11.5 -19l269 -551q1 -1 3 -7.5t3 -9.5q1 -2 2 -5.5t1 -4.5v-42q0 -14 -11.5 -17.5t-22.5 -3.5z" />
<glyph unicode="]" horiz-adv-x="179" d="M52 3q-11 2 -21.5 12t-10.5 22v46q0 5 3 9.5t6 8.5q6 8 16 13l21 9q10 4 17 11t7 21v395q0 14 -8 22t-18.5 14t-21.5 11.5t-17 15.5q-5 8 -5 14v45q0 15 15.5 24.5t28.5 9.5h49q1 0 6.5 -1t8.5 -2q17 -5 24 -18t7 -29v-603q0 -18 -8 -31.5t-27 -18.5q-2 -1 -8 -2.5 t-9 -1.5h-39z" />
<glyph unicode="^" horiz-adv-x="251" d="M20 524q0 2 0.5 5.5t0.5 4.5l31 88q0 1 0.5 1.5t0.5 1.5q1 1 2.5 6t4 11t4 11t2.5 6q5 14 15.5 30t28.5 16h32q9 0 16.5 -5t13 -12.5t9.5 -16t7 -15.5l37 -103l6 -22v-44q0 -6 -5.5 -13t-11.5 -7h-31q-11 0 -17 11t-9 19q-2 4 -8.5 18t-6.5 20q-2 4 -6.5 10.5t-9.5 6.5 t-9.5 -6t-6.5 -10t-7 -17t-7 -17q-3 -10 -9 -22.5t-19 -12.5h-27q-8 0 -12 4.5t-6 11t-2.5 13.5t-0.5 12v16z" />
<glyph unicode="_" horiz-adv-x="325" d="M20 -87q0 34 15.5 46t48.5 12h158q35 0 49 -12.5t14 -46.5q0 -38 -17.5 -50t-55.5 -12h-140q-36 0 -54 12.5t-18 50.5z" />
<glyph unicode="`" horiz-adv-x="108" d="M36 469q-11 5 -13.5 17t-2.5 23v148q0 8 4.5 20t15.5 12h28q13 0 16.5 -13t3.5 -22v-156q0 -7 -4 -18.5t-15 -11.5h-29q-1 0 -2 0.5t-2 0.5z" />
<glyph unicode="a" horiz-adv-x="406" d="M20 139q0 40 15.5 67t52.5 44q16 7 33.5 11t34.5 5l90 2q3 0 8.5 1t8.5 3q1 0 3 1v1v1q-14 9 -30 13t-32 5q-3 0 -11 1l-17 1l-16 1h-11q-17 3 -33.5 11.5t-16.5 28.5v41q0 5 2 10l5 9q14 17 36 18.5t41 1.5q22 0 42.5 -1.5t40.5 -6.5q28 -7 49.5 -24.5t36.5 -41.5 t23 -51.5t10 -54.5q1 -5 1 -13v-12v-24q0 -32 -3 -64.5t-14.5 -59.5t-34.5 -44.5t-63 -19.5h-35q-38 0 -76 4.5t-69.5 19t-51 42t-19.5 74.5zM142 136q0 -3 6 -5t8 -2q3 -1 9.5 -2.5t7.5 -1.5q3 0 10 -1t15.5 -1.5t15.5 -1.5t10 -1h10q11 0 20.5 1.5t20.5 3.5q2 1 11.5 5 t9.5 7t-7 4.5t-10 2.5q-2 0 -9 1h-92q-15 0 -34 -8q-1 0 -2 -1z" />
<glyph unicode="b" d="M20 292v150v43q0 32 0.5 67.5t0.5 66.5v44q2 8 6 17t15 9h25q11 0 16 -13t5 -22v-208q0 -2 2.5 -7t4.5 -7q6 -8 16 -12t20 -4l90 -2q33 -1 65 -19q55 -31 73.5 -79t18.5 -108q0 -32 -5.5 -62t-18 -55.5t-34 -45.5t-53.5 -32q-16 -6 -34 -10t-35 -4h-69q-1 0 -4.5 0.5 t-5.5 0.5q-11 2 -21.5 5t-20.5 9q-16 9 -27 24t-17.5 32.5t-9.5 36t-3 35.5v150zM308 208q0 9 -4 17q-13 31 -44 49.5t-64 18.5h-65q-13 0 -23.5 -6t-15.5 -18q-1 -1 -3 -6q0 -94 0.5 -95.5t0.5 -3.5q1 -2 2.5 -6t1.5 -5q8 -20 29 -26.5t41 -6.5q18 0 38 3t38.5 10t34 18.5 t24.5 28.5l6 14q3 7 3 14z" />
<glyph unicode="c" horiz-adv-x="365" d="M20 208q0 26 5.5 55t17.5 56t31 49t45 33q11 5 23.5 9.5t25.5 4.5h57q15 0 33 -5.5t35 -15.5t30 -23t18 -28l4 -12v-45q0 -7 -7 -14.5t-14 -7.5q-36 0 -38 0.5t-3 0.5q-8 2 -15 7t-15 8q-27 11 -49 11q-32 0 -61.5 -14.5t-43.5 -45.5q-2 -5 -4 -11.5t-2 -11.5t2 -11.5 t4 -11.5q14 -30 43 -45.5t61 -15.5q12 0 24.5 2.5t23.5 7.5q2 2 11 7l12 6q3 1 7.5 3t7.5 2h35q7 0 14 -8t7 -15v-44l-4 -12q-5 -15 -18 -28t-30 -23t-35 -15.5t-33 -5.5h-57q-13 0 -25.5 4.5t-23.5 9.5q-27 11 -45.5 32.5t-30.5 48.5t-17.5 56.5t-5.5 55.5z" />
<glyph unicode="d" horiz-adv-x="399" d="M20 210q0 28 4 55t14 51t27 44t44 34q15 8 32.5 13.5t35.5 5.5l91 3q12 0 23 5t16 17q1 2 3 7v215q0 7 5 17.5t14 10.5h29q8 0 12.5 -7.5t5.5 -14.5q1 -3 2 -11.5t1 -10.5v-491q0 -31 -5.5 -57.5t-19 -47t-35.5 -33.5t-55 -16h-32q-111 0 -161.5 51t-50.5 160zM90 207 q0 -8 3 -15t7 -14q10 -17 25 -28t33 -18t37.5 -9.5t37.5 -2.5q13 0 26.5 3t24.5 9.5t18.5 17t7.5 25.5v88q0 15 -15 22t-27 7h-67q-17 0 -36 -6.5t-36 -17.5t-28 -26.5t-11 -34.5z" />
<glyph unicode="e" horiz-adv-x="399" d="M20 208q0 43 10 80t31.5 65t55.5 44t81 16q90 0 135.5 -53.5t45.5 -141.5v-24q-4 -22 -16.5 -34.5t-35.5 -12.5l-162 -3h-4q-4 0 -5 -1q-2 0 -5.5 -0.5t-4.5 -2.5q2 -4 7.5 -6t9.5 -3q24 -8 48 -10l49 -4q16 -3 31 -11t15 -28v-36q0 -22 -16 -31t-33 -12h-28 q-109 0 -159 51.5t-50 157.5zM141 273q8 -5 18 -5h80q1 0 4 0.5t5 0.5q1 0 6 1t5 3q0 3 -8 6.5t-18.5 6t-20 4t-11.5 1.5q-6 0 -14.5 -1t-17.5 -3t-16.5 -5.5t-11.5 -8.5z" />
<glyph unicode="f" horiz-adv-x="399" d="M21 103q0 36 -0.5 75.5t-0.5 74.5v50v53v48v24q0 17 0.5 36.5t0.5 36.5v25q1 27 8.5 54t21 50.5t33.5 42t47 27.5q19 7 36 8.5t37 1.5h27q24 -2 45.5 -12t38.5 -25.5t30 -36t20 -42.5q3 -9 5.5 -18.5t4.5 -18.5q2 -10 2 -13q0 -2 2 -12v-36q0 -8 -4.5 -18.5t-15.5 -10.5 h-30q-5 0 -9.5 5.5t-6.5 10.5q-1 3 -3.5 14.5t-3.5 14.5q-9 36 -39.5 55.5t-65.5 19.5q-20 0 -39.5 -6.5t-35.5 -19t-26 -30t-10 -38.5v-50q0 -7 4.5 -12t11 -8.5t13.5 -5.5t13 -2q3 0 11 -0.5t17 -0.5t17 -0.5t11 -0.5q28 -6 36.5 -17.5t8.5 -40.5q0 -30 -9.5 -42.5 t-39.5 -18.5q-5 -1 -10 -1h-10h-20q-21 0 -38 -7q-7 -3 -10 -10t-6 -13v-204q0 -4 -1 -10t-3.5 -12t-6.5 -10t-10 -4h-29q-11 0 -14.5 11.5t-4.5 19.5v49z" />
<glyph unicode="g" d="M93 -89q0 26 8.5 41t36.5 17q66 5 74 6l12 3q1 0 6 1.5t10 3.5t9.5 4t4.5 4q0 3 -8 4t-10 2q-25 2 -48 3.5t-46 8.5q-24 7 -43.5 20t-36.5 32q-26 27 -34 68t-8 77q0 20 1 40t6 40q3 11 8 22.5t10 21.5q7 14 18 25l21 23q23 20 54 28t61 8q21 0 42 -3.5t41 -12.5 q10 -5 16.5 -10t15.5 -10q2 -3 11.5 -12t11.5 -12q10 -11 17.5 -26t12.5 -32t8 -34t3 -32v-205l-6 -24l-5 -24q-3 -11 -9 -22l-10 -21q-20 -38 -50 -57t-72 -25q-2 0 -6 -0.5t-5 -0.5h-72q-3 0 -9.5 1.5t-11.5 3.5q-20 8 -24.5 21.5t-4.5 33.5zM90 208q0 -9 4 -17.5t9 -16.5 q10 -17 27 -27.5t36.5 -16.5t40 -8t38.5 -2h22q12 2 23 5.5t16 16.5q1 2 2 4.5t1 3.5v54q0 19 -11 35.5t-27.5 28t-36 18t-35.5 6.5q-26 0 -55 -14t-43 -37q-4 -8 -7.5 -16.5t-3.5 -16.5z" />
<glyph unicode="h" d="M378 233v-179q0 -8 -4.5 -19.5t-15.5 -11.5h-28q-8 0 -12 7t-6 13q-1 3 -2 9t-1 7q0 147 -0.5 149.5t-1.5 4.5q-10 32 -31.5 49.5t-53.5 25.5q-4 2 -12.5 3t-13.5 1h-65q-12 0 -23 -5.5t-16 -16.5l-4 -8v-207q0 -8 -4.5 -20t-15.5 -12h-28q-12 0 -16 13t-4 22v595 q0 8 4 21.5t16 13.5h28q11 0 15.5 -12t4.5 -20q0 -211 1.5 -213.5t2.5 -4.5q5 -12 16 -17t23 -6l90 -2q48 -2 84 -29.5t55 -69.5q5 -11 7.5 -22.5t6.5 -22.5z" />
<glyph unicode="i" horiz-adv-x="106" d="M33 24q-7 2 -10 10t-3 15v313q0 7 4.5 16t13.5 9h27q12 0 16.5 -12.5t4.5 -21.5v-296q0 -8 -4 -21t-14 -13q-30 0 -32 0.5t-3 0.5zM36 460q-6 2 -11 7.5t-5 12.5v35q0 6 5 13t12 7h31q7 0 12 -8t5 -14v-31q0 -8 -6 -15.5t-14 -7.5q-24 0 -26 0.5t-3 0.5z" />
<glyph unicode="j" horiz-adv-x="325" d="M20 -88q0 27 9 39.5t37 17.5q24 1 47 3t43.5 8.5t38.5 19t32 35.5q4 6 7.5 16t3.5 18v294q0 7 4.5 18t14.5 11h27q11 0 16 -11t5 -20v-324q0 -55 -25 -100t-76 -69q-25 -11 -53 -14t-54 -3h-28q-29 4 -39 19t-10 42zM271 465q-12 0 -22.5 4.5t-10.5 18.5v31q0 7 5.5 15.5 t13.5 8.5h27q7 0 13.5 -7t6.5 -14q0 -36 -0.5 -37.5t-1.5 -2.5q-5 -12 -12 -14.5t-19 -2.5z" />
<glyph unicode="k" horiz-adv-x="401" d="M153 416q22 0 45 2.5t43 10t37 21t27 36.5q1 4 4 17t4 17q2 6 6 13.5t12 7.5h29q8 0 13 -10t5 -16v-53q0 -1 -1 -10t-2 -14q-2 -11 -5.5 -22t-8.5 -22q-1 -2 -2.5 -5.5t-2.5 -4.5q0 -1 -1.5 -3.5t-2.5 -2.5l-10 -20v-4l10 -20q16 -29 22.5 -61t6.5 -66v-138 q0 -2 -1 -10.5t-2 -12.5q-1 -5 -5 -14t-12 -9h-31q-8 0 -13 10.5t-5 15.5v93q0 2 -1 6.5t-1 6.5v10q0 8 -0.5 17t-0.5 17v11q-3 19 -14 34t-27 25.5t-34.5 16.5t-36.5 6h-66q-12 0 -23 -5.5t-16 -16.5q-1 -2 -3 -7v-210q0 -8 -5 -19t-15 -11h-29q-8 0 -12 7.5t-6 13.5 q0 2 -1 9t-1 8v590q0 1 1 8t1 9q2 6 6 13.5t12 7.5h29q10 0 15 -11t5 -19v-213q0 -1 1 -3.5t2 -4.5q5 -12 15.5 -16t23.5 -6h22z" />
<glyph unicode="l" horiz-adv-x="106" d="M35 24q-15 7 -15 26v602q0 8 5 18t16 10h24q11 0 16 -11t5 -20v-597q0 -8 -4 -18.5t-14 -10.5q-30 0 -31 0.5t-2 0.5z" />
<glyph unicode="m" horiz-adv-x="471" d="M182 412q14 0 26.5 -2t25.5 -2q14 0 28 2.5t29 2.5q60 0 97 -37t53 -91q3 -11 6.5 -26.5t3.5 -26.5v-171q0 -1 -1 -8.5t-2 -10.5q-1 -6 -5.5 -12.5t-11.5 -6.5h-28q-11 0 -16 11t-5 19v140q0 1 -2 11l-3 14q-3 11 -10.5 23t-18 22t-22.5 16.5t-24 6.5q-10 0 -18 -8 t-10 -18l-4 -40q0 -165 -2 -171l-2 -10q-2 -5 -6.5 -10.5t-9.5 -5.5h-29q-9 0 -14.5 11t-5.5 19v167l-4 38q-2 11 -10 19t-19 8t-22.5 -5.5t-22 -14t-18 -19t-10.5 -19.5q-2 -5 -4 -14.5t-2 -11.5v-140q0 -1 -1.5 -7.5t-2.5 -9.5q-1 -6 -5 -13.5t-12 -7.5h-29q-11 0 -15 11 t-4 19v184q0 14 3.5 28t7.5 27q17 57 54 88.5t97 31.5z" />
<glyph unicode="n" horiz-adv-x="399" d="M201 291q-31 0 -61 -15.5t-42 -46.5q-5 -10 -6 -20.5t-5 -20.5v-135q0 -8 -4 -19t-15 -11h-30q-10 0 -14 13.5t-4 21.5v151q0 31 7 63.5t22.5 60t39.5 48t58 28.5q2 0 9.5 1.5t10.5 2.5q2 0 5.5 0.5t4.5 0.5h53q6 0 15.5 -2t16.5 -4q44 -12 70.5 -49.5t37.5 -79.5 q1 -3 3.5 -16t4.5 -18q0 -2 0.5 -6.5t0.5 -5.5v-178q0 -8 -4.5 -20t-15.5 -12h-28q-11 0 -16 13.5t-5 21.5v136q0 1 -2 10t-3 14q-9 35 -39.5 54t-64.5 19z" />
<glyph unicode="o" horiz-adv-x="399" d="M20 206q0 28 6 59t19 58.5t34 49t51 31.5q19 6 36 8t37 2h27q28 -2 51.5 -14t41.5 -31t30 -43t18 -50q1 -2 3 -13t2 -12t0.5 -3t1.5 -3q0 -2 0.5 -6t0.5 -5v-57q0 -1 -0.5 -4.5t-0.5 -5.5q-5 -24 -13.5 -48t-21.5 -45.5t-31 -38t-43 -25.5q-9 -4 -18.5 -6.5t-18.5 -2.5 h-57q-13 0 -27.5 4t-26.5 10q-28 13 -47 33.5t-31 46t-17.5 54t-5.5 57.5zM93 209q0 -20 10.5 -36t27 -27t35.5 -16.5t37 -5.5q29 0 56 14.5t40 42.5l5 13q2 6 2 14q0 7 -2.5 13t-4.5 13q-12 27 -39.5 42t-55.5 15q-30 0 -58 -12.5t-43 -39.5q-10 -13 -10 -30z" />
<glyph unicode="p" d="M205 415q22 0 35 -4q54 -10 86.5 -44.5t46.5 -88.5q5 -20 5 -36v-36v-33q-5 -66 -40.5 -111.5t-101.5 -57.5q-27 -5 -52 -5.5t-53 -1.5q-17 -3 -26.5 -7t-15.5 -21v-11q0 -9 -0.5 -18.5t-0.5 -17.5v-11q-1 -9 -4.5 -22t-15.5 -13h-28q-6 0 -10 4t-6 10t-3 12t-1 10v361 q0 43 16 78q10 24 23.5 37t30 19t37 7t44.5 1h34zM173 293q-10 0 -21.5 -0.5t-22.5 -3t-20 -8.5t-14 -16l-4 -10q-2 -5 -2 -10v-96q0 -1 1 -3l2 -4q5 -12 15.5 -16t23.5 -6h22h21q3 1 18.5 2.5t21.5 2.5q25 4 44 16t36 30q5 8 10 18t5 20q0 11 -5 20t-10 17q-28 29 -54.5 38 t-66.5 9z" />
<glyph unicode="q" horiz-adv-x="399" d="M310 -39q0 5 -2.5 10.5t-5.5 10.5q-5 8 -15 10.5t-19 4.5q-4 0 -13.5 0.5t-20.5 0.5q-10 0 -19.5 0.5t-13.5 0.5q-75 5 -121.5 45t-57.5 115q-2 11 -1.5 23t0.5 22q0 11 -0.5 25t1.5 26q8 61 42.5 103t95.5 53q13 4 35 4h35q19 0 35 -0.5t30 -3.5t26.5 -10.5t26.5 -22.5 q15 -16 22 -41.5t8 -47.5v-38q0 -27 0.5 -57.5t0.5 -57.5v-38v-41v-38v-22q0 -17 -0.5 -35t-0.5 -34v-22q-2 -8 -5 -19t-14 -11h-30q-8 0 -11.5 7.5t-5.5 13.5q-3 15 -3 33v16q0 10 1 15zM91 209q0 -9 3.5 -17t7.5 -16q10 -18 27 -29t37 -17t41 -8t39 -2h22q9 2 19 4.5 t15 10.5q8 11 8 21v79q0 54 -58 58h-25q-27 0 -55.5 -5t-49.5 -25l-11 -10q-5 -5 -9 -12l-8 -15q-3 -8 -3 -17z" />
<glyph unicode="r" horiz-adv-x="324" d="M220 414q10 0 24 -0.5t27.5 -4t23 -11.5t9.5 -23v-39q0 -20 -17 -30t-34 -12q-20 0 -41.5 -1t-41.5 -6t-37.5 -16t-29.5 -30q-5 -8 -9.5 -18t-4.5 -21l-2 -152q-1 -7 -5.5 -17t-13.5 -10h-29q-11 0 -15 11t-4 19v180q0 15 3.5 30.5t7.5 29.5q14 48 46.5 79t81.5 40 q8 1 15 1.5t15 0.5h31z" />
<glyph unicode="s" horiz-adv-x="408" d="M142 117q4 0 14.5 1t22.5 1.5t22.5 1.5t14.5 1q2 1 10 1.5t10 1.5q9 2 15.5 3t14.5 6l1 1v1q-3 3 -11.5 5t-13.5 2l-90 8q-19 1 -40 7t-40 16.5t-32.5 26.5t-17.5 37q-1 5 -1.5 10t-0.5 9v20q0 61 32.5 92t89.5 42q15 4 39 4h39h25q22 0 43 -8.5t21 -31.5v-38 q0 -20 -17 -30t-34 -12q-4 0 -14.5 -0.5t-21.5 -0.5t-21 -0.5t-14 -0.5q-2 0 -10 -1t-11 -2q-2 0 -5.5 -1t-5.5 -1q-2 -1 -8 -2.5t-6 -4.5q0 -2 3 -3t4 -1l16 -4l100 -9q21 -2 41.5 -8.5t37 -18.5t28.5 -29t16 -39q1 -3 1 -15v-15q0 -46 -19 -73.5t-49 -42.5t-68 -19.5 t-75 -4.5h-30q-12 2 -26.5 7.5t-19.5 19.5q-1 3 -2 8.5t-1 6.5v39q0 18 15 26.5t29 10.5z" />
<glyph unicode="t" horiz-adv-x="324" d="M135 32q-1 0 -1.5 2t-1.5 3q-1 3 -2.5 9t-1.5 7v209q0 10 -10 18t-18 9l-43 8q-14 2 -25.5 13.5t-11.5 25.5q0 39 1.5 44.5t2.5 7.5q3 12 14.5 17t25.5 7l29 4q14 2 22 8q3 2 8 9t5 12v65q0 1 1.5 7t2.5 9q2 5 6 9.5t9 4.5h28q8 0 12 -5t6 -11l4 -16v-64q0 -1 2 -5t4 -6 q5 -9 14 -13t19.5 -5.5t20.5 -2t18 -3.5q11 -4 20 -12.5t9 -20.5v-41q0 -5 -2 -9.5t-4 -8.5q-8 -13 -22 -17t-28 -6t-26.5 -5t-18.5 -14q-2 -2 -6 -11q0 -209 -2 -215l-2 -10q-2 -5 -6 -10.5t-10 -5.5h-29q-4 0 -7.5 3t-5.5 6z" />
<glyph unicode="u" d="M198 124q45 0 73 23t36 65q1 2 1.5 6t0.5 5v135q0 8 5 21t16 13h27q11 0 16 -11t5 -20v-182q0 -2 -0.5 -6t-0.5 -5q-11 -52 -33 -93t-72 -64q-20 -10 -41 -10h-56q-9 0 -20 3l-18 4q-47 14 -73 51t-38 81q0 2 -1 6.5t-1 6.5q-1 6 -2.5 17.5t-1.5 13.5v172q0 4 1 10t3 12 t6 10t10 4h27q7 0 11 -5t6 -11q1 -4 4 -18v-140q0 -1 1.5 -8.5t3.5 -11.5q9 -35 39.5 -54.5t65.5 -19.5z" />
<glyph unicode="v" horiz-adv-x="396" d="M20 370q1 8 5 15.5t14 7.5h29q11 0 17.5 -11t9.5 -19l84 -198q2 -5 7.5 -11.5t11.5 -6.5q4 0 8.5 4.5t6.5 8.5q7 11 12 24l10 25q1 3 5 13l8 20l9 20q4 10 4.5 11.5t1.5 3.5t2 2l34 83q3 8 9.5 19.5t17.5 11.5h32q7 0 12.5 -7t5.5 -13v-46l-30 -76q0 -1 -1 -2.5t-1 -2.5 l-44 -102l-43 -103q-10 -22 -24 -29.5t-37 -7.5q-42 0 -59 38l-112 270q-4 9 -4.5 19t-0.5 21v18z" />
<glyph unicode="w" horiz-adv-x="467" d="M35 183q-4 13 -4.5 28.5t-1.5 28.5q0 3 -2 5q-2 26 -4.5 50.5t-2.5 50.5v26q1 6 5.5 13t11.5 7h29q9 0 14 -8.5t7 -20t3 -22.5t2 -16q0 -2 1 -14t1 -14q0 -1 0.5 -2.5t0.5 -2.5q0 -3 1 -10.5t1.5 -15.5t1.5 -15.5t1 -10.5q0 -1 1 -7q1 -3 2.5 -17t1.5 -17q1 -4 4.5 -16.5 t9.5 -12.5l2 1q8 7 12.5 12t9.5 13q1 1 5 7l8 13l8 12l4 8q7 11 20.5 22.5t27.5 11.5h33q14 0 26.5 -9t19.5 -20l32 -50q3 -5 10 -12.5t12 -7.5h2q0 1 2 3.5t2 3.5q1 1 2 3t2.5 8t2.5 8q3 34 7.5 67.5t6.5 68.5q2 4 3 14t2.5 20t6 17.5t13.5 7.5h27q10 0 13.5 -8t5.5 -16 v-26q0 -15 -0.5 -30t-3.5 -30l-9 -85q0 -1 -0.5 -3.5t-0.5 -3.5q0 -6 -1 -14l-2 -17q-1 -9 -2 -21v-5l-7 -67q0 -1 -2 -8t-3 -12q-3 -11 -11.5 -25t-23.5 -14h-35q-10 0 -18 7.5t-13 13.5q-1 1 -6.5 9t-7.5 12l-18 31l-18 31q-5 8 -13 18.5t-19 10.5q-7 0 -12 -4t-9 -9 q-1 -2 -7.5 -12t-9.5 -15q0 -1 -2 -5q-2 -3 -8 -13.5t-8 -14.5q-4 -6 -9.5 -16t-13 -20t-16 -17t-17.5 -7h-34q-11 0 -18.5 8.5t-12.5 20t-7.5 23.5t-3.5 20z" />
<glyph unicode="x" horiz-adv-x="397" d="M20 61q0 26 7 40t25 33l11 12l17.5 17l17.5 17l11 12q2 2 6 6.5t4 9.5q0 4 -4 8.5t-6 6.5l-67 69q-14 14 -18 29.5t-4 34.5q0 5 0.5 12.5t2.5 14t6.5 11t12.5 4.5h31q13 0 25 -12l78 -78q4 -4 10.5 -8t11.5 -4q10 0 20 9l16 14q3 4 12 13l19 20l20 20l14 14q9 12 25 12 h29q10 0 17 -8t7 -16v-37q0 -11 -5.5 -21.5t-12.5 -18.5l-74 -78q-2 -2 -4.5 -5t-2.5 -6t2.5 -6.5t4.5 -5.5l74 -78q7 -7 12.5 -18t5.5 -21v-37q0 -8 -6.5 -16.5t-14.5 -8.5h-34q-6 0 -12 4t-11 8l-13 14l-20 20l-20 20q-9 9 -12 13q-6 6 -16 15t-20 9q-5 0 -11.5 -4.5 t-10.5 -8.5l-78 -78q-12 -12 -25 -12h-31q-5 0 -9.5 3.5t-7.5 7.5q-5 8 -5 16v17z" />
<glyph unicode="y" d="M252 -9q0 4 -7.5 4.5t-9.5 1.5q-4 0 -13 0.5t-19.5 1t-19.5 1t-12 0.5q-43 7 -71.5 26t-51.5 57q-9 15 -15 33t-9 35q-1 5 -2.5 14t-1.5 10v188q0 9 5 19.5t16 10.5h25q10 0 15 -9.5t6 -18.5l2 -145q0 -8 2 -15t4 -15q4 -12 11.5 -21t15.5 -17q24 -22 58.5 -27t64.5 -5 h22q11 2 21 4.5t16 13.5q1 3 3 7t2 5v212q0 8 5.5 19.5t16.5 11.5h27q9 0 13 -9.5t6 -16.5v-44q0 -31 0.5 -66.5t0.5 -67.5v-43v-58v-57q-2 -19 -7 -38t-12 -36q-16 -40 -46 -67t-72 -35q-4 -1 -13 -2.5t-14 -1.5h-71q-17 0 -33.5 11.5t-16.5 30.5v38q0 17 14.5 27t29.5 11 l71 7q11 1 22.5 5t21.5 9v1z" />
<glyph unicode="z" horiz-adv-x="399" d="M20 77q0 25 7.5 46t27.5 38l140 116l9 8v1q0 3 -10 5t-12 2l-110 2q-18 1 -34.5 12.5t-16.5 30.5v37q0 12 7 19.5t16.5 12t20.5 6.5t20 2h215q42 0 60.5 -15.5t18.5 -60.5q0 -29 -9 -49.5t-32 -39.5l-143 -118l-1 -1q-1 -1 -2 -2.5t-2 -2.5q4 -2 11.5 -4.5t10.5 -2.5h103 q34 0 49 -13.5t15 -45.5q0 -38 -19 -50t-55 -12h-181q-24 0 -43 2t-32.5 10t-21 24t-7.5 43z" />
<glyph unicode="{" horiz-adv-x="251" d="M184 702q17 0 32 -6.5t15 -26.5v-37q0 -15 -9 -24.5t-21 -17t-23 -16t-15 -21.5l-4 -16v-112q0 -2 -1.5 -13t-3.5 -16l-5 -18q-3 -13 -5 -17v-12q2 -4 5 -18l5 -17q2 -5 3.5 -14.5t1.5 -11.5v-116q0 -2 2 -9t3 -10q5 -12 16 -20l22 -15q12 -7 20.5 -16t8.5 -24v-38 q0 -20 -15.5 -26t-31.5 -6q-23 0 -38 8.5t-25.5 22.5t-16.5 32t-8 27.5t-2.5 11.5t-0.5 3q-1 3 -1.5 9t-0.5 7v101q0 24 -14 44q-6 8 -16 14l-19 12q-9 6 -15.5 14t-6.5 21v40q0 13 6.5 21t15.5 14l19 12q10 6 16 14q8 9 11 21t3 23v104q0 1 0.5 6.5t1.5 7.5q3 19 9.5 38 t17 33.5t26.5 23.5t38 9z" />
<glyph unicode="|" horiz-adv-x="106" d="M36 -123q-9 4 -12.5 12.5t-3.5 16.5v742q0 9 5 20t16 11h24q11 0 16 -11t5 -20v-742q0 -8 -5 -19t-16 -11h-24q-1 0 -2.5 0.5t-2.5 0.5z" />
<glyph unicode="}" horiz-adv-x="252" d="M20 59q0 9 0.5 18.5t4.5 17.5q5 11 14 17.5t18.5 12.5t18.5 13.5t13 19.5q1 2 3 11v109q0 17 4.5 35.5t9.5 35.5v11q-5 16 -9.5 34.5t-4.5 35.5q0 110 -1 114.5t-2 6.5q-4 13 -13 20.5t-19.5 13.5t-19.5 13t-13 19q-3 8 -3.5 16.5t-0.5 16.5q0 27 9 39t38 12 q8 0 15.5 -0.5t15.5 -3.5q15 -6 26.5 -19t19 -28.5t11.5 -33t4 -32.5l3 -118q0 -15 8 -24.5t18 -16.5l22 -15q11 -8 17 -19q5 -8 5 -18v-19q0 -17 -3 -28.5t-16 -23.5l-14 -9l-14 -9q-15 -11 -19.5 -26t-5.5 -32v-20q0 -14 -0.5 -30.5t-0.5 -30.5v-20q0 -30 -13 -60t-39 -48 q-4 -4 -11.5 -6.5t-12.5 -2.5h-31q-3 0 -9 2t-8 4q-11 8 -13 20t-2 25z" />
<glyph unicode="~" d="M126 386q-16 0 -23.5 -10.5t-12.5 -23.5l-8 -22q-4 -11 -14 -11h-28q-11 0 -14.5 10.5t-5.5 18.5v19q0 20 4 43t13 43.5t24.5 35.5t38.5 20l8 2h17q45 0 66.5 -21.5t33.5 -63.5q1 -3 2.5 -11t2.5 -10v-7l1 -12l1 -12q1 -5 1 -6q2 -14 12.5 -28.5t26.5 -14.5 q15 0 22.5 10.5t12 23t9 23t15.5 10.5h26q7 0 11.5 -5t6.5 -12.5t2.5 -15t0.5 -12.5q0 -18 -2.5 -38t-9.5 -38.5t-18 -34.5t-28 -25q-7 -4 -15 -7t-16 -3h-37q-3 0 -11.5 2.5t-10.5 3.5q-30 12 -43 41t-19 58q-2 11 -2.5 21t-2.5 19.5t-6.5 18t-14.5 16.5q-3 3 -7.5 4 t-8.5 1z" />
<glyph unicode="&#xaa;" horiz-adv-x="406" d="M20 139q0 40 15.5 67t52.5 44q16 7 33.5 11t34.5 5l90 2q3 0 8.5 1t8.5 3q1 0 3 1v1v1q-14 9 -30 13t-32 5q-3 0 -11 1h-17l-16 2h-11q-17 3 -33.5 11.5t-16.5 28.5v41q0 5 3 10l4 9q14 17 36 18.5t41 1.5q22 0 42.5 -1.5t40.5 -6.5q28 -7 49.5 -24.5t36.5 -41.5 t23 -51.5t10 -54.5q1 -5 1 -13v-12v-24q0 -32 -3 -64.5t-14.5 -59.5t-34.5 -44.5t-63 -19.5h-35q-38 0 -76 4.5t-69.5 19t-51 42t-19.5 74.5zM142 136q0 -3 6 -5t8 -2q3 -1 9.5 -2.5t7.5 -1.5q3 0 10 -1t15.5 -1.5t15.5 -1.5t10 -1h10q11 0 20.5 1.5t20.5 3.5q2 1 11.5 5 t9.5 7t-7 4.5t-10 2.5q-2 0 -9 1h-92q-15 0 -34 -8q-1 0 -2 -1z" />
<glyph unicode="&#xad;" horiz-adv-x="324" d="M69 295q-7 1 -15.5 4t-16 7.5t-12.5 11t-5 15.5q0 46 0.5 47.5t0.5 2.5q8 20 25 26t37 6h158q14 0 33 -4.5t26 -20.5q1 -2 2.5 -6t1.5 -5v-46q0 -3 -2 -8.5t-4 -7.5q-13 -15 -30.5 -19t-36.5 -4h-141q-2 0 -9.5 0.5t-11.5 0.5z" />
<glyph unicode="&#xb2;" horiz-adv-x="399" d="M21 235q2 25 9.5 52t21.5 50t33.5 41.5t45.5 27.5q16 6 33 8l34 6q16 2 32.5 5.5t31.5 11.5q17 9 31 27.5t14 38.5q0 18 -11 35q-14 26 -42.5 38t-56.5 12q-29 0 -54 -13t-39 -39q-5 -8 -10 -25q-1 -2 -3.5 -12t-2.5 -12q-2 -5 -6 -12t-10 -7h-32q-8 0 -13 8.5t-5 14.5 v51q0 2 1.5 10.5t2.5 11.5q7 28 19 53.5t29.5 45.5t41.5 32.5t54 15.5h27q60 0 102.5 -24t63.5 -82l11 -33q5 -17 5 -34v-64q0 -10 -3 -23.5t-6 -23.5q-6 -22 -17 -43t-26 -38t-35 -29t-44 -16l-72 -11q-42 -6 -64 -37.5t-22 -70.5q0 -25 11 -38t33 -20q1 0 5 -1t10.5 -2 t7.5 -1h159q8 0 19 -2t20.5 -6.5t16.5 -12t7 -17.5v-43q0 -9 -5.5 -16t-12.5 -13q-10 -9 -26.5 -10.5t-28.5 -1.5h-72h-72q-17 0 -35.5 1.5t-35.5 8.5q-27 12 -41 33t-20.5 47t-7.5 54t-1 52v41z" />
<glyph unicode="&#xb3;" d="M20 198q0 4 0.5 12t2.5 15.5t6 13t11 5.5h28q8 0 13 -7.5t7 -14.5l4 -20q2 -9 7 -18q13 -29 40.5 -44.5t58.5 -15.5q29 0 56 13t42 39q10 16 10 32q0 24 -17.5 43t-37.5 29q-3 1 -9.5 3t-13.5 4.5t-13.5 4.5t-9.5 3q-11 4 -24.5 14t-13.5 24v46q0 14 11.5 23t22.5 14 q29 8 54 18.5t41 37.5q10 16 10 32q0 15 -10 31q-14 27 -42.5 39.5t-57.5 12.5q-30 0 -54.5 -14t-40.5 -40l-4 -11l-4 -11q-1 -2 -3 -10.5t-2 -10.5q-2 -6 -6 -14.5t-11 -8.5h-31q-11 0 -14.5 11.5t-4.5 19.5v17q0 25 5.5 51.5t17 50.5t29 44t41.5 33q12 7 26.5 11.5 t28.5 4.5h53q10 0 23 -3l21 -5q11 -3 22 -10l19 -12q29 -20 44.5 -53.5t22.5 -65.5q1 -4 2.5 -13.5t1.5 -11.5v-61q0 -32 -12 -61.5t-26 -55.5v-4q13 -25 25.5 -55t12.5 -59v-61q0 -2 -1.5 -12.5t-2.5 -14.5q-10 -52 -38.5 -92t-82.5 -54q-17 -5 -29 -5h-57q-22 0 -41 10 q-2 1 -10 4.5t-10 5.5q-10 5 -18.5 13.5t-16.5 17.5q-26 28 -38.5 68.5t-12.5 77.5z" />
<glyph unicode="&#xb9;" horiz-adv-x="108" d="M35 24q-10 5 -12.5 15t-2.5 20v594q0 7 4 20.5t14 13.5h29q12 0 16.5 -13.5t4.5 -22.5v-591q0 -9 -4 -23t-17 -14q-29 0 -30 0.5t-2 0.5z" />
<glyph unicode="&#xba;" horiz-adv-x="399" d="M20 206q0 28 6 59t19 58.5t34 49t51 31.5q19 6 36 8t37 2h27q28 -2 51.5 -14t41.5 -31t30 -43t18 -50q1 -2 3 -13t2 -12t0.5 -3t1.5 -3q0 -2 0.5 -6t0.5 -5v-57q0 -1 -0.5 -4.5t-0.5 -5.5q-5 -24 -13.5 -48t-21.5 -45.5t-31 -38t-43 -25.5q-9 -4 -18.5 -6.5t-18.5 -2.5 h-57q-13 0 -27.5 4t-26.5 10q-28 13 -47 33.5t-31 46t-17.5 54t-5.5 57.5zM93 209q0 -20 10.5 -36t27 -27t35.5 -16.5t37 -5.5q29 0 56 14.5t40 42.5l5 13q2 6 2 14q0 7 -2.5 13t-4.5 13q-12 27 -39.5 42t-55.5 15q-30 0 -58 -12.5t-43 -39.5q-10 -13 -10 -30z" />
<glyph unicode="&#xc0;" horiz-adv-x="394" d="M180 773q-11 5 -13.5 17t-2.5 23v148q0 8 4.5 20t15.5 12h28q13 0 16.5 -13t3.5 -22v-156q0 -7 -4 -18.5t-15 -11.5h-29q-1 0 -2 0.5t-2 0.5zM119 527l2 9l27 119q3 11 11 26t22 15h31q10 0 17 -7t11.5 -16.5t7 -20.5t4.5 -18l26 -115v-8l83 -365q1 -1 2 -4t1 -4l2 -13 l4 -15q1 -8 4 -19v-50q0 -5 -5 -11.5t-11 -6.5h-31q-8 0 -13 7.5t-7 14.5q-1 3 -3 12t-4.5 19t-4.5 19t-3 12q-10 37 -49 37h-92q-37 0 -48 -35q-1 -3 -2.5 -10.5t-4 -16.5t-4 -16.5t-2.5 -10.5q-2 -8 -7 -20t-16 -12h-30q-7 0 -12 6.5t-5 13.5q0 45 1 51t2.5 13.5t3.5 15.5 t3 13q0 2 1 5t1 4zM144 282q0 -1 3 -3.5t5 -4.5q2 -1 6 -2.5t6 -1.5q2 -1 7.5 -2t6.5 -1h38q8 0 21.5 4.5t13.5 15.5q0 3 -0.5 5t-1.5 5l-33 148q-1 5 -4.5 13t-5.5 12q-1 2 -3.5 7.5t-5.5 5.5q-2 0 -4.5 -4.5t-5.5 -10.5t-5 -11t-2 -6l-36 -157v-12z" />
<glyph unicode="&#xc2;" horiz-adv-x="394" d="M91 829q0 2 0.5 5.5t0.5 4.5l31 88q0 1 0.5 1.5t0.5 1.5q1 1 2.5 6t4 11t4 11t2.5 6q5 14 15.5 30t28.5 16h32q9 0 16.5 -5t13 -12.5t9.5 -16t7 -15.5l37 -103l6 -22v-44q0 -6 -5.5 -13t-11.5 -7h-31q-11 0 -17 11t-9 19q-2 4 -8.5 18t-6.5 20q-2 4 -6.5 10.5t-9.5 6.5 t-9.5 -6t-6.5 -10t-7 -17t-7 -17q-3 -10 -9 -22.5t-19 -12.5h-27q-8 0 -12 4.5t-6 11t-2.5 13.5t-0.5 12v16zM119 527l2 9l27 119q3 11 11 26t22 15h31q10 0 17 -7t11.5 -16.5t7 -20.5t4.5 -18l26 -115v-8l83 -365q1 -1 2 -4t1 -4l2 -13l4 -15q1 -8 4 -19v-50q0 -5 -5 -11.5 t-11 -6.5h-31q-8 0 -13 7.5t-7 14.5q-1 3 -3 12t-4.5 19t-4.5 19t-3 12q-10 37 -49 37h-92q-37 0 -48 -35q-1 -3 -2.5 -10.5t-4 -16.5t-4 -16.5t-2.5 -10.5q-2 -8 -7 -20t-16 -12h-30q-7 0 -12 6.5t-5 13.5q0 45 1 51t2.5 13.5t3.5 15.5t3 13q0 2 1 5t1 4zM144 282 q0 -1 3 -3.5t5 -4.5q2 -1 6 -2.5t6 -1.5q2 -1 7.5 -2t6.5 -1h38q8 0 21.5 4.5t13.5 15.5q0 3 -0.5 5t-1.5 5l-33 148q-1 5 -4.5 13t-5.5 12q-1 2 -3.5 7.5t-5.5 5.5q-2 0 -4.5 -4.5t-5.5 -10.5t-5 -11t-2 -6l-36 -157v-12z" />
<glyph unicode="&#xc3;" horiz-adv-x="394" d="M124 957q-16 0 -23.5 -10.5t-12.5 -22.5l-8 -24q-4 -10 -14 -10h-28q-11 0 -14.5 10.5t-5.5 18.5v19q0 20 4 43t13 43.5t24.5 35.5t38.5 20l8 2h17q45 0 66.5 -21.5t33.5 -63.5q1 -3 2.5 -11t2.5 -10v-8l2 -11v-11q1 -6 1 -7q2 -14 12.5 -28.5t26.5 -14.5q15 0 22.5 10.5 t12 23t9 23t15.5 10.5h26q7 0 11.5 -5t6.5 -12.5t2.5 -15t0.5 -12.5q0 -18 -2.5 -38t-9.5 -38.5t-18 -34.5t-28 -25q-7 -4 -15 -7t-16 -3h-37q-3 0 -11.5 2.5t-10.5 3.5q-30 12 -43 41t-19 58q-2 11 -2.5 21t-2.5 19.5t-6.5 18t-14.5 16.5q-3 3 -7.5 4t-8.5 1zM119 527l2 9 l27 119q3 11 11 26t22 15h31q10 0 17 -7t11.5 -16.5t7 -20.5t4.5 -18l26 -115v-8l83 -365q1 -1 2 -4t1 -4l2 -13l4 -15q1 -8 4 -19v-50q0 -5 -5 -11.5t-11 -6.5h-31q-8 0 -13 7.5t-7 14.5q-1 3 -3 12t-4.5 19t-4.5 19t-3 12q-10 37 -49 37h-92q-37 0 -48 -35 q-1 -3 -2.5 -10.5t-4 -16.5t-4 -16.5t-2.5 -10.5q-2 -8 -7 -20t-16 -12h-30q-7 0 -12 6.5t-5 13.5q0 45 1 51t2.5 13.5t3.5 15.5t3 13q0 2 1 5t1 4zM144 282q0 -1 3 -3.5t5 -4.5q2 -1 6 -2.5t6 -1.5q2 -1 7.5 -2t6.5 -1h38q8 0 21.5 4.5t13.5 15.5q0 3 -0.5 5t-1.5 5 l-33 148q-1 5 -4.5 13t-5.5 12q-1 2 -3.5 7.5t-5.5 5.5q-2 0 -4.5 -4.5t-5.5 -10.5t-5 -11t-2 -6l-36 -157v-12z" />
<glyph unicode="&#xc6;" horiz-adv-x="687" d="M101 108q0 -3 -1.5 -10t-3.5 -15.5t-3.5 -15.5t-2.5 -10q-2 -8 -7 -20.5t-16 -12.5h-31q-6 0 -11 6.5t-5 11.5v47l105 469q2 5 2.5 8.5t1.5 7.5l19 86q8 30 29 40.5t50 10.5h374q34 0 50 -12t16 -47q0 -22 -5 -32.5t-22 -21.5q-11 -6 -25 -6l-312 -3q-9 0 -22.5 -4.5 t-13.5 -15.5v-2l26 -115q4 -17 17.5 -26.5t30.5 -9.5h117q17 0 35.5 -6.5t25.5 -23.5q1 -5 1.5 -9t0.5 -7v-15v-15q0 -2 -0.5 -5.5t-1.5 -8.5q-4 -14 -19 -22t-28 -9l-101 -2q-9 0 -22.5 -4t-13.5 -16q0 -8 2 -15l4 -16l18 -85q4 -17 18 -27t31 -10h193q33 0 49.5 -13 t16.5 -47q0 -40 -20 -51t-56 -11h-209q-9 0 -20.5 1t-22 5t-18.5 10t-11 17l-17 74q-5 18 -17 29t-31 11h-94q-18 0 -31.5 -10t-18.5 -27zM143 289q0 -8 6.5 -12t15 -6t17 -2.5t13.5 -0.5h19q4 0 10 1.5t12 3.5t10.5 5.5t4.5 8.5q0 8 -2.5 17t-5.5 17l-27 123q-2 11 -6 19 l-6 13q-3 5 -4 7.5t-3 2.5t-4.5 -4.5t-5 -10t-4.5 -11t-3 -7.5l-37 -161v-3z" />
<glyph unicode="&#xc8;" horiz-adv-x="401" d="M214 773q-11 5 -13.5 17t-2.5 23v148q0 8 4.5 20t15.5 12h28q13 0 16.5 -13t3.5 -22v-156q0 -7 -4 -18.5t-15 -11.5h-29q-1 0 -2 0.5t-2 0.5zM22 128q0 10 -0.5 37t-0.5 57t-0.5 56.5t-0.5 37.5v39v40q0 10 0.5 36.5t0.5 56.5t0.5 56t0.5 37q1 16 5.5 36t13 38t21.5 32 t32 19q13 4 24.5 5t25.5 1h173q34 0 49 -12t15 -47q0 -19 -6 -35.5t-28 -21.5q-3 -1 -9.5 -2.5t-7.5 -1.5l-182 -2q-20 -1 -39 -14t-19 -36q0 -96 2 -100l3 -6q5 -9 16 -12.5t21 -4.5q3 0 11 -0.5t17 -1t17 -1t11 -0.5q29 -3 38 -16.5t9 -40.5q0 -29 -10.5 -43t-40.5 -18 q-3 0 -10 -0.5t-15.5 -1t-16 -1t-10.5 -0.5q-10 -1 -21 -4t-16 -13l-5 -10v-95q0 -12 7 -21.5t17.5 -16t22.5 -10t23 -3.5h157q34 0 49 -13t15 -47q0 -38 -18.5 -50.5t-55.5 -11.5h-70q-26 0 -55 -1t-56.5 3.5t-50.5 18t-36 42.5q-16 33 -17 67z" />
<glyph unicode="&#xca;" horiz-adv-x="401" d="M125 829q0 2 0.5 5.5t0.5 4.5l31 88q0 1 0.5 1.5t0.5 1.5q1 1 2.5 6t4 11t4 11t2.5 6q5 14 15.5 30t28.5 16h32q9 0 16.5 -5t13 -12.5t9.5 -16t7 -15.5l37 -103l6 -22v-44q0 -6 -5.5 -13t-11.5 -7h-31q-11 0 -17 11t-9 19q-2 4 -8.5 18t-6.5 20q-2 4 -6.5 10.5t-9.5 6.5 t-9.5 -6t-6.5 -10t-7 -17t-7 -17q-3 -10 -9 -22.5t-19 -12.5h-27q-8 0 -12 4.5t-6 11t-2.5 13.5t-0.5 12v16zM22 128q0 10 -0.5 37t-0.5 57t-0.5 56.5t-0.5 37.5v39v40q0 10 0.5 36.5t0.5 56.5t0.5 56t0.5 37q1 16 5.5 36t13 38t21.5 32t32 19q13 4 24.5 5t25.5 1h173 q34 0 49 -12t15 -47q0 -19 -6 -35.5t-28 -21.5q-3 -1 -9.5 -2.5t-7.5 -1.5l-182 -2q-20 -1 -39 -14t-19 -36q0 -96 2 -100l3 -6q5 -9 16 -12.5t21 -4.5q3 0 11 -0.5t17 -1t17 -1t11 -0.5q29 -3 38 -16.5t9 -40.5q0 -29 -10.5 -43t-40.5 -18q-3 0 -10 -0.5t-15.5 -1t-16 -1 t-10.5 -0.5q-10 -1 -21 -4t-16 -13l-5 -10v-95q0 -12 7 -21.5t17.5 -16t22.5 -10t23 -3.5h157q34 0 49 -13t15 -47q0 -38 -18.5 -50.5t-55.5 -11.5h-70q-26 0 -55 -1t-56.5 3.5t-50.5 18t-36 42.5q-16 33 -17 67z" />
<glyph unicode="&#xcc;" d="M182 773q-11 5 -13.5 17t-2.5 23v148q0 8 4.5 20t15.5 12h28q13 0 16.5 -13t3.5 -22v-156q0 -7 -4 -18.5t-15 -11.5h-29q-1 0 -2 0.5t-2 0.5zM378 654q0 -20 -3.5 -32t-21.5 -23q-5 -4 -12 -5.5t-14 -2.5l-53 -2q-31 -2 -41 -27q0 -1 -1 -5v-405q0 -2 2 -7t3 -6 q5 -11 15.5 -14.5t21.5 -4.5l57 -2q16 -2 29 -10q13 -9 15.5 -20.5t2.5 -25.5q0 -39 -17.5 -51.5t-56.5 -12.5h-211q-8 0 -19 1t-21 4t-18 9t-11 16q-1 2 -4 14v36q0 19 15 29t32 11l54 2q13 1 27.5 8t14.5 23v407q0 16 -14.5 23t-27.5 8l-50 2q-18 2 -34.5 13t-16.5 31v35 q0 12 6.5 20t16 12.5t21 6.5t20.5 2h230q33 0 48.5 -12.5t15.5 -44.5z" />
<glyph unicode="&#xce;" d="M94 829q0 2 0.5 5.5t0.5 4.5l31 88q0 1 0.5 1.5t0.5 1.5q1 1 2.5 6t4 11t4 11t2.5 6q5 14 15.5 30t28.5 16h32q9 0 16.5 -5t13 -12.5t9.5 -16t7 -15.5l37 -103l6 -22v-44q0 -6 -5.5 -13t-11.5 -7h-31q-11 0 -17 11t-9 19q-2 4 -8.5 18t-6.5 20q-2 4 -6.5 10.5t-9.5 6.5 t-9.5 -6t-6.5 -10t-7 -17t-7 -17q-3 -10 -9 -22.5t-19 -12.5h-27q-8 0 -12 4.5t-6 11t-2.5 13.5t-0.5 12v16zM378 654q0 -20 -3.5 -32t-21.5 -23q-5 -4 -12 -5.5t-14 -2.5l-53 -2q-31 -2 -41 -27q0 -1 -1 -5v-405q0 -2 2 -7t3 -6q5 -11 15.5 -14.5t21.5 -4.5l57 -2 q16 -2 29 -10q13 -9 15.5 -20.5t2.5 -25.5q0 -39 -17.5 -51.5t-56.5 -12.5h-211q-8 0 -19 1t-21 4t-18 9t-11 16q-1 2 -4 14v36q0 19 15 29t32 11l54 2q13 1 27.5 8t14.5 23v407q0 16 -14.5 23t-27.5 8l-50 2q-18 2 -34.5 13t-16.5 31v35q0 12 6.5 20t16 12.5t21 6.5t20.5 2 h230q33 0 48.5 -12.5t15.5 -44.5z" />
<glyph unicode="&#xd1;" horiz-adv-x="399" d="M-6 957q-16 0 -23.5 -10.5t-12.5 -22.5l-8 -24q-4 -10 -14 -10h-28q-11 0 -14.5 10.5t-5.5 18.5v19q0 20 4 43t13 43.5t24.5 35.5t38.5 20l8 2h17q45 0 66.5 -21.5t33.5 -63.5q1 -3 2.5 -11t2.5 -10v-8l2 -11v-11q1 -6 1 -7q2 -14 12.5 -28.5t26.5 -14.5q15 0 22.5 10.5 t12 23t9 23t15.5 10.5h26q7 0 11.5 -5t6.5 -12.5t2.5 -15t0.5 -12.5q0 -18 -2.5 -38t-9.5 -38.5t-18 -34.5t-28 -25q-7 -4 -15 -7t-16 -3h-37q-3 0 -11.5 2.5t-10.5 3.5q-30 12 -43 41t-19 58q-2 11 -2.5 21t-2.5 19.5t-6.5 18t-14.5 16.5q-3 3 -7.5 4t-8.5 1zM21 108v85 q0 48 -0.5 99t-0.5 99v84v56v48v48q0 15 1 27.5t5.5 22t14 15t26.5 5.5q14 0 23 -3.5t15 -10t10 -15.5l9 -22q8 -17 14.5 -34.5t14.5 -35.5q0 -2 3 -5l62 -150q3 -3 3 -5q1 -3 5 -12l8 -21l9 -21q4 -9 5 -11q11 -25 21.5 -51.5t27.5 -47.5q1 0 2 -1q2 0 4 4.5t3.5 10.5 t2.5 11.5t1 7.5v370q0 9 5.5 20.5t16.5 11.5h27q9 0 13 -9t6 -17v-51v-79q0 -43 0.5 -90.5t0.5 -92.5v-78v-51v-76v-76q0 -6 -1.5 -15t-5 -17.5t-9 -14.5t-14.5 -6h-36q-7 0 -14 7t-9 13l-170 398q-2 4 -6 10l-6 10l-8 8q-1 0 -3 -4l-3 -6q-4 -9 -4.5 -21.5t-0.5 -22.5v-348 q0 -7 -4.5 -21t-15.5 -14h-29q-11 0 -14.5 11.5t-4.5 18.5v55z" />
<glyph unicode="&#xd2;" d="M182 773q-11 5 -13.5 17t-2.5 23v148q0 8 4.5 20t15.5 12h28q13 0 16.5 -13t3.5 -22v-156q0 -7 -4 -18.5t-15 -11.5h-29q-1 0 -2 0.5t-2 0.5zM20 537q2 10 3.5 19.5t3.5 19.5q20 69 60 102.5t112 33.5q60 0 101 -26.5t62 -84.5l10 -34q6 -18 6 -35v-352q0 -17 -5 -35 t-11 -34q-22 -60 -62.5 -85.5t-101.5 -25.5h-25q-60 7 -94.5 43t-51.5 93q-2 10 -3.5 19.5t-3.5 19.5v362zM199 587q-20 0 -40 -7t-35.5 -19.5t-25 -30t-9.5 -39.5v-270q0 -22 9.5 -39.5t25.5 -30t35.5 -19.5t39.5 -7t39.5 7t35.5 19.5t25.5 30.5t9.5 39v268q0 22 -9.5 40 t-25 31t-35 20t-40.5 7z" />
<glyph unicode="&#xd4;" d="M94 829q0 2 0.5 5.5t0.5 4.5l31 88q0 1 0.5 1.5t0.5 1.5q1 1 2.5 6t4 11t4 11t2.5 6q5 14 15.5 30t28.5 16h32q9 0 16.5 -5t13 -12.5t9.5 -16t7 -15.5l37 -103l6 -22v-44q0 -6 -5.5 -13t-11.5 -7h-31q-11 0 -17 11t-9 19q-2 4 -8.5 18t-6.5 20q-2 4 -6.5 10.5t-9.5 6.5 t-9.5 -6t-6.5 -10t-7 -17t-7 -17q-3 -10 -9 -22.5t-19 -12.5h-27q-8 0 -12 4.5t-6 11t-2.5 13.5t-0.5 12v16zM20 537q2 10 3.5 19.5t3.5 19.5q20 69 60 102.5t112 33.5q60 0 101 -26.5t62 -84.5l10 -34q6 -18 6 -35v-352q0 -17 -5 -35t-11 -34q-22 -60 -62.5 -85.5 t-101.5 -25.5h-25q-60 7 -94.5 43t-51.5 93q-2 10 -3.5 19.5t-3.5 19.5v362zM199 587q-20 0 -40 -7t-35.5 -19.5t-25 -30t-9.5 -39.5v-270q0 -22 9.5 -39.5t25.5 -30t35.5 -19.5t39.5 -7t39.5 7t35.5 19.5t25.5 30.5t9.5 39v268q0 22 -9.5 40t-25 31t-35 20t-40.5 7z" />
<glyph unicode="&#xd5;" d="M126 957q-16 0 -23.5 -10.5t-12.5 -22.5l-8 -24q-4 -10 -14 -10h-28q-11 0 -14.5 10.5t-5.5 18.5v19q0 20 4 43t13 43.5t24.5 35.5t38.5 20l8 2h17q45 0 66.5 -21.5t33.5 -63.5q1 -3 2.5 -11t2.5 -10v-8l2 -11v-11q1 -6 1 -7q2 -14 12.5 -28.5t26.5 -14.5q15 0 22.5 10.5 t12 23t9 23t15.5 10.5h26q7 0 11.5 -5t6.5 -12.5t2.5 -15t0.5 -12.5q0 -18 -2.5 -38t-9.5 -38.5t-18 -34.5t-28 -25q-7 -4 -15 -7t-16 -3h-37q-3 0 -11.5 2.5t-10.5 3.5q-30 12 -43 41t-19 58q-2 11 -2.5 21t-2.5 19.5t-6.5 18t-14.5 16.5q-3 3 -7.5 4t-8.5 1zM20 537 q2 10 3.5 19.5t3.5 19.5q20 69 60 102.5t112 33.5q60 0 101 -26.5t62 -84.5l10 -34q6 -18 6 -35v-352q0 -17 -5 -35t-11 -34q-22 -60 -62.5 -85.5t-101.5 -25.5h-25q-60 7 -94.5 43t-51.5 93q-2 10 -3.5 19.5t-3.5 19.5v362zM199 587q-20 0 -40 -7t-35.5 -19.5t-25 -30 t-9.5 -39.5v-270q0 -22 9.5 -39.5t25.5 -30t35.5 -19.5t39.5 -7t39.5 7t35.5 19.5t25.5 30.5t9.5 39v268q0 22 -9.5 40t-25 31t-35 20t-40.5 7z" />
<glyph unicode="&#xd9;" d="M183 773q-11 5 -13.5 17t-2.5 23v148q0 8 4.5 20t15.5 12h28q13 0 16.5 -13t3.5 -22v-156q0 -7 -4 -18.5t-15 -11.5h-29q-1 0 -2 0.5t-2 0.5zM88 223q0 -1 1.5 -10.5t3.5 -13.5q8 -36 40 -55t67 -19q36 0 67 21t39 58q1 3 2 9t1 7v436q0 8 4.5 20t14.5 12h30 q11 0 15.5 -13t4.5 -21v-476q0 -1 -2.5 -14t-3.5 -21q-11 -51 -42.5 -89t-82.5 -50q-1 -1 -6.5 -1.5t-7.5 -1.5q-2 0 -9 -1h-51q-1 0 -7.5 1t-9.5 1q-53 10 -84 48t-45 87q0 2 -2.5 13.5t-3.5 16.5q0 2 -0.5 5.5t-0.5 5.5v480q0 9 5 19.5t16 10.5h25q7 0 11 -4t5.5 -9 t2.5 -11.5t3 -10.5v-430z" />
<glyph unicode="&#xdb;" d="M94 829q0 2 0.5 5.5t0.5 4.5l31 88q0 1 0.5 1.5t0.5 1.5q1 1 2.5 6t4 11t4 11t2.5 6q5 14 15.5 30t28.5 16h32q9 0 16.5 -5t13 -12.5t9.5 -16t7 -15.5l37 -103l6 -22v-44q0 -6 -5.5 -13t-11.5 -7h-31q-11 0 -17 11t-9 19q-2 4 -8.5 18t-6.5 20q-2 4 -6.5 10.5t-9.5 6.5 t-9.5 -6t-6.5 -10t-7 -17t-7 -17q-3 -10 -9 -22.5t-19 -12.5h-27q-8 0 -12 4.5t-6 11t-2.5 13.5t-0.5 12v16zM88 223q0 -1 1.5 -10.5t3.5 -13.5q8 -36 40 -55t67 -19q36 0 67 21t39 58q1 3 2 9t1 7v436q0 8 4.5 20t14.5 12h30q11 0 15.5 -13t4.5 -21v-476q0 -1 -2.5 -14 t-3.5 -21q-11 -51 -42.5 -89t-82.5 -50q-1 -1 -6.5 -1.5t-7.5 -1.5q-2 0 -9 -1h-51q-1 0 -7.5 1t-9.5 1q-53 10 -84 48t-45 87q0 2 -2.5 13.5t-3.5 16.5q0 2 -0.5 5.5t-0.5 5.5v480q0 9 5 19.5t16 10.5h25q7 0 11 -4t5.5 -9t2.5 -11.5t3 -10.5v-430z" />
<glyph unicode="&#xe0;" horiz-adv-x="406" d="M166 477q-11 5 -13.5 17t-2.5 23v148q0 8 4.5 20t15.5 12h28q13 0 16.5 -13t3.5 -22v-156q0 -7 -4 -18.5t-15 -11.5h-29q-1 0 -2 0.5t-2 0.5zM20 139q0 40 15.5 67t52.5 44q16 7 33.5 11t34.5 5l90 2q3 0 8.5 1t8.5 3q1 0 3 1v1v1q-14 9 -30 13t-32 5q-3 0 -11 1h-17 l-16 2h-11q-17 3 -33.5 11.5t-16.5 28.5v41q0 5 3 10l4 9q14 17 36 18.5t41 1.5q22 0 42.5 -1.5t40.5 -6.5q28 -7 49.5 -24.5t36.5 -41.5t23 -51.5t10 -54.5q1 -5 1 -13v-12v-24q0 -32 -3 -64.5t-14.5 -59.5t-34.5 -44.5t-63 -19.5h-35q-38 0 -76 4.5t-69.5 19t-51 42 t-19.5 74.5zM142 136q0 -3 6 -5t8 -2q3 -1 9.5 -2.5t7.5 -1.5q3 0 10 -1t15.5 -1.5t15.5 -1.5t10 -1h10q11 0 20.5 1.5t20.5 3.5q2 1 11.5 5t9.5 7t-7 4.5t-10 2.5q-2 0 -9 1h-92q-15 0 -34 -8q-1 0 -2 -1z" />
<glyph unicode="&#xe2;" horiz-adv-x="406" d="M78 533q0 2 0.5 5.5t0.5 4.5l31 88q0 1 0.5 1.5t0.5 1.5q1 1 2.5 6t4 11t4 11t2.5 6q5 14 15.5 30t28.5 16h32q9 0 16.5 -5t13 -12.5t9.5 -16t7 -15.5l37 -103l6 -22v-44q0 -6 -5.5 -13t-11.5 -7h-31q-11 0 -17 11t-9 19q-2 4 -8.5 18t-6.5 20q-2 4 -6.5 10.5t-9.5 6.5 t-9.5 -6t-6.5 -10t-7 -17t-7 -17q-3 -10 -9 -22.5t-19 -12.5h-27q-8 0 -12 4.5t-6 11t-2.5 13.5t-0.5 12v16zM20 139q0 40 15.5 67t52.5 44q16 7 33.5 11t34.5 5l90 2q3 0 8.5 1t8.5 3q1 0 3 1v1v1q-14 9 -30 13t-32 5q-3 0 -11 1h-17l-16 2h-11q-17 3 -33.5 11.5 t-16.5 28.5v41q0 5 3 10l4 9q14 17 36 18.5t41 1.5q22 0 42.5 -1.5t40.5 -6.5q28 -7 49.5 -24.5t36.5 -41.5t23 -51.5t10 -54.5q1 -5 1 -13v-12v-24q0 -32 -3 -64.5t-14.5 -59.5t-34.5 -44.5t-63 -19.5h-35q-38 0 -76 4.5t-69.5 19t-51 42t-19.5 74.5zM142 136q0 -3 6 -5 t8 -2q3 -1 9.5 -2.5t7.5 -1.5q3 0 10 -1t15.5 -1.5t15.5 -1.5t10 -1h10q11 0 20.5 1.5t20.5 3.5q2 1 11.5 5t9.5 7t-7 4.5t-10 2.5q-2 0 -9 1h-92q-15 0 -34 -8q-1 0 -2 -1z" />
<glyph unicode="&#xe3;" horiz-adv-x="406" d="M110 661q-16 0 -23.5 -10.5t-12.5 -22.5l-8 -24q-4 -10 -14 -10h-28q-11 0 -14.5 10.5t-5.5 18.5v19q0 20 4 43t13 43.5t24.5 35.5t38.5 20l8 2h17q45 0 66.5 -21.5t33.5 -63.5q1 -3 2.5 -11t2.5 -10v-8l2 -11v-11q1 -6 1 -7q2 -14 12.5 -28.5t26.5 -14.5q15 0 22.5 10.5 t12 23t9 23t15.5 10.5h26q7 0 11.5 -5t6.5 -12.5t2.5 -15t0.5 -12.5q0 -18 -2.5 -38t-9.5 -38.5t-18 -34.5t-28 -25q-7 -4 -15 -7t-16 -3h-37q-3 0 -11.5 2.5t-10.5 3.5q-30 12 -43 41t-19 58q-2 11 -2.5 21t-2.5 19.5t-6.5 18t-14.5 16.5q-3 3 -7.5 4t-8.5 1zM20 139 q0 40 15.5 67t52.5 44q16 7 33.5 11t34.5 5l90 2q3 0 8.5 1t8.5 3q1 0 3 1v1v1q-14 9 -30 13t-32 5q-3 0 -11 1h-17l-16 2h-11q-17 3 -33.5 11.5t-16.5 28.5v41q0 5 3 10l4 9q14 17 36 18.5t41 1.5q22 0 42.5 -1.5t40.5 -6.5q28 -7 49.5 -24.5t36.5 -41.5t23 -51.5t10 -54.5 q1 -5 1 -13v-12v-24q0 -32 -3 -64.5t-14.5 -59.5t-34.5 -44.5t-63 -19.5h-35q-38 0 -76 4.5t-69.5 19t-51 42t-19.5 74.5zM142 136q0 -3 6 -5t8 -2q3 -1 9.5 -2.5t7.5 -1.5q3 0 10 -1t15.5 -1.5t15.5 -1.5t10 -1h10q11 0 20.5 1.5t20.5 3.5q2 1 11.5 5t9.5 7t-7 4.5t-10 2.5 q-2 0 -9 1h-92q-15 0 -34 -8q-1 0 -2 -1z" />
<glyph unicode="&#xe6;" horiz-adv-x="692" d="M262 274q0 2 -4 4t-5 2q-25 11 -52 12.5t-54 2.5q-17 2 -33.5 11.5t-16.5 30.5v38q0 10 5.5 18t14 12.5t18.5 7t18 2.5h79q16 0 37 -7t32 -16q1 -1 6 -5l11 -8q5 -5 10 -8.5t7 -4.5q8 -5 13 -5q12 0 24.5 11.5t23.5 17.5q23 12 46 18t50 6q55 0 101.5 -26.5t64.5 -81.5 l6 -17q2 -8 4 -18q0 -2 1 -9t1.5 -8t1 -3t0.5 -3v-60q0 -18 -17.5 -29.5t-33.5 -11.5l-163 -2q-2 0 -9.5 -1t-8.5 -4q4 -5 13.5 -8t14.5 -5q4 -1 13.5 -2.5t11.5 -2.5l60 -4q28 -2 37 -17.5t9 -40.5q0 -28 -10.5 -42.5t-40.5 -18.5h-27q-26 0 -51.5 2.5t-48.5 12.5 q-2 1 -11 5t-12 6q-8 4 -15.5 9t-16.5 5q-10 0 -19 -7.5t-16 -12.5q-28 -19 -63 -20h-34q-26 0 -52.5 1.5t-52 7.5t-48 17.5t-40.5 32.5q-9 11 -15 26t-6 29v54q0 15 7 28q17 35 53 52t73 19l90 2q1 0 6.5 1t7.5 2q1 0 3 0.5t2 2.5zM140 135q0 -2 8 -4.5t10 -3.5q4 -1 12 -2 t9 -1q3 0 9 -0.5t13.5 -1.5t13.5 -1.5t9 -0.5h10q28 0 45 7l8 4q6 3 6 6t-7 4.5t-9 1.5q-8 2 -10 2h-91q-9 0 -18 -2.5t-17 -5.5l-1 -1v-1zM433 274q0 -2 2 -2.5t3 -0.5q3 -1 8 -2t6 -1q82 0 87.5 1t7.5 2q1 0 3 0.5t2 2.5q0 3 -8 6t-18.5 6t-20 4.5t-13.5 1.5 q-12 0 -31 -4.5t-27 -13.5h-1z" />
<glyph unicode="&#xe8;" horiz-adv-x="399" d="M182 475q-11 5 -13.5 17t-2.5 23v148q0 8 4.5 20t15.5 12h28q13 0 16.5 -13t3.5 -22v-156q0 -7 -4 -18.5t-15 -11.5h-29q-1 0 -2 0.5t-2 0.5zM20 208q0 43 10 80t31.5 65t55.5 44t81 16q90 0 135.5 -53.5t45.5 -141.5v-24q-4 -22 -16.5 -34.5t-35.5 -12.5l-162 -3h-4 q-4 0 -5 -1q-2 0 -5.5 -0.5t-4.5 -2.5q2 -4 7.5 -6t9.5 -3q24 -8 48 -10l49 -4q16 -3 31 -11t15 -28v-36q0 -22 -16 -31t-33 -12h-28q-109 0 -159 51.5t-50 157.5zM141 273q8 -5 18 -5h80q1 0 4 0.5t5 0.5q1 0 6 1t5 3q0 3 -8 6.5t-18.5 6t-20 4t-11.5 1.5q-6 0 -14.5 -1 t-17.5 -3t-16.5 -5.5t-11.5 -8.5z" />
<glyph unicode="&#xea;" horiz-adv-x="399" d="M92 531q0 2 0.5 5.5t0.5 4.5l31 88q0 1 0.5 1.5t0.5 1.5q1 1 2.5 6t4 11t4 11t2.5 6q5 14 15.5 30t28.5 16h32q9 0 16.5 -5t13 -12.5t9.5 -16t7 -15.5l37 -103l6 -22v-44q0 -6 -5.5 -13t-11.5 -7h-31q-11 0 -17 11t-9 19q-2 4 -8.5 18t-6.5 20q-2 4 -6.5 10.5t-9.5 6.5 t-9.5 -6t-6.5 -10t-7 -17t-7 -17q-3 -10 -9 -22.5t-19 -12.5h-27q-8 0 -12 4.5t-6 11t-2.5 13.5t-0.5 12v16zM20 208q0 43 10 80t31.5 65t55.5 44t81 16q90 0 135.5 -53.5t45.5 -141.5v-24q-4 -22 -16.5 -34.5t-35.5 -12.5l-162 -3h-4q-4 0 -5 -1q-2 0 -5.5 -0.5t-4.5 -2.5 q2 -4 7.5 -6t9.5 -3q24 -8 48 -10l49 -4q16 -3 31 -11t15 -28v-36q0 -22 -16 -31t-33 -12h-28q-109 0 -159 51.5t-50 157.5zM141 273q8 -5 18 -5h80q1 0 4 0.5t5 0.5q1 0 6 1t5 3q0 3 -8 6.5t-18.5 6t-20 4t-11.5 1.5q-6 0 -14.5 -1t-17.5 -3t-16.5 -5.5t-11.5 -8.5z" />
<glyph unicode="&#xec;" horiz-adv-x="106" d="M36 596q-11 5 -13.5 17t-2.5 23v148q0 8 4.5 20t15.5 12h28q13 0 16.5 -13t3.5 -22v-156q0 -7 -4 -18.5t-15 -11.5h-29q-1 0 -2 0.5t-2 0.5zM33 24q-7 2 -10 10t-3 15v313q0 7 4.5 16t13.5 9h27q12 0 16.5 -12.5t4.5 -21.5v-296q0 -8 -4 -21t-14 -13q-30 0 -32 0.5 t-3 0.5zM36 460q-6 2 -11 7.5t-5 12.5v35q0 6 5 13t12 7h31q7 0 12 -8t5 -14v-31q0 -8 -6 -15.5t-14 -7.5q-24 0 -26 0.5t-3 0.5z" />
<glyph unicode="&#xee;" horiz-adv-x="106" d="M-53 652q0 2 0.5 5.5t0.5 4.5l31 88q0 1 0.5 1.5t0.5 1.5q1 1 2.5 6t4 11t4 11t2.5 6q5 14 15.5 30t28.5 16h32q9 0 16.5 -5t13 -12.5t9.5 -16t7 -15.5l37 -103l6 -22v-44q0 -6 -5.5 -13t-11.5 -7h-31q-11 0 -17 11t-9 19q-2 4 -8.5 18t-6.5 20q-2 4 -6.5 10.5t-9.5 6.5 t-9.5 -6t-6.5 -10t-7 -17t-7 -17q-3 -10 -9 -22.5t-19 -12.5h-27q-8 0 -12 4.5t-6 11t-2.5 13.5t-0.5 12v16zM33 24q-7 2 -10 10t-3 15v313q0 7 4.5 16t13.5 9h27q12 0 16.5 -12.5t4.5 -21.5v-296q0 -8 -4 -21t-14 -13q-30 0 -32 0.5t-3 0.5zM36 460q-6 2 -11 7.5t-5 12.5 v35q0 6 5 13t12 7h31q7 0 12 -8t5 -14v-31q0 -8 -6 -15.5t-14 -7.5q-24 0 -26 0.5t-3 0.5z" />
<glyph unicode="&#xf1;" horiz-adv-x="399" d="M126 659q-16 0 -23.5 -10.5t-12.5 -22.5l-8 -24q-4 -10 -14 -10h-28q-11 0 -14.5 10.5t-5.5 18.5v19q0 20 4 43t13 43.5t24.5 35.5t38.5 20l8 2h17q45 0 66.5 -21.5t33.5 -63.5q1 -3 2.5 -11t2.5 -10v-8l2 -11v-11q1 -6 1 -7q2 -14 12.5 -28.5t26.5 -14.5q15 0 22.5 10.5 t12 23t9 23t15.5 10.5h26q7 0 11.5 -5t6.5 -12.5t2.5 -15t0.5 -12.5q0 -18 -2.5 -38t-9.5 -38.5t-18 -34.5t-28 -25q-7 -4 -15 -7t-16 -3h-37q-3 0 -11.5 2.5t-10.5 3.5q-30 12 -43 41t-19 58q-2 11 -2.5 21t-2.5 19.5t-6.5 18t-14.5 16.5q-3 3 -7.5 4t-8.5 1zM201 291 q-31 0 -61 -15.5t-42 -46.5q-5 -10 -6 -20.5t-5 -20.5v-135q0 -8 -4 -19t-15 -11h-30q-10 0 -14 13.5t-4 21.5v151q0 31 7 63.5t22.5 60t39.5 48t58 28.5q2 0 9.5 1.5t10.5 2.5q2 0 5.5 0.5t4.5 0.5h53q6 0 15.5 -2t16.5 -4q44 -12 70.5 -49.5t37.5 -79.5q1 -3 3.5 -16 t4.5 -18q0 -2 0.5 -6.5t0.5 -5.5v-178q0 -8 -4.5 -20t-15.5 -12h-28q-11 0 -16 13.5t-5 21.5v136q0 1 -2 10t-3 14q-9 35 -39.5 54t-64.5 19z" />
<glyph unicode="&#xf2;" horiz-adv-x="399" d="M200 475q-11 5 -13.5 17t-2.5 23v148q0 8 4.5 20t15.5 12h28q13 0 16.5 -13t3.5 -22v-156q0 -7 -4 -18.5t-15 -11.5h-29q-1 0 -2 0.5t-2 0.5zM20 206q0 28 6 59t19 58.5t34 49t51 31.5q19 6 36 8t37 2h27q28 -2 51.5 -14t41.5 -31t30 -43t18 -50q1 -2 3 -13t2 -12t0.5 -3 t1.5 -3q0 -2 0.5 -6t0.5 -5v-57q0 -1 -0.5 -4.5t-0.5 -5.5q-5 -24 -13.5 -48t-21.5 -45.5t-31 -38t-43 -25.5q-9 -4 -18.5 -6.5t-18.5 -2.5h-57q-13 0 -27.5 4t-26.5 10q-28 13 -47 33.5t-31 46t-17.5 54t-5.5 57.5zM93 209q0 -20 10.5 -36t27 -27t35.5 -16.5t37 -5.5 q29 0 56 14.5t40 42.5l5 13q2 6 2 14q0 7 -2.5 13t-4.5 13q-12 27 -39.5 42t-55.5 15q-30 0 -58 -12.5t-43 -39.5q-10 -13 -10 -30z" />
<glyph unicode="&#xf4;" horiz-adv-x="399" d="M111 531q0 2 0.5 5.5t0.5 4.5l31 88q0 1 0.5 1.5t0.5 1.5q1 1 2.5 6t4 11t4 11t2.5 6q5 14 15.5 30t28.5 16h32q9 0 16.5 -5t13 -12.5t9.5 -16t7 -15.5l37 -103l6 -22v-44q0 -6 -5.5 -13t-11.5 -7h-31q-11 0 -17 11t-9 19q-2 4 -8.5 18t-6.5 20q-2 4 -6.5 10.5t-9.5 6.5 t-9.5 -6t-6.5 -10t-7 -17t-7 -17q-3 -10 -9 -22.5t-19 -12.5h-27q-8 0 -12 4.5t-6 11t-2.5 13.5t-0.5 12v16zM20 206q0 28 6 59t19 58.5t34 49t51 31.5q19 6 36 8t37 2h27q28 -2 51.5 -14t41.5 -31t30 -43t18 -50q1 -2 3 -13t2 -12t0.5 -3t1.5 -3q0 -2 0.5 -6t0.5 -5v-57 q0 -1 -0.5 -4.5t-0.5 -5.5q-5 -24 -13.5 -48t-21.5 -45.5t-31 -38t-43 -25.5q-9 -4 -18.5 -6.5t-18.5 -2.5h-57q-13 0 -27.5 4t-26.5 10q-28 13 -47 33.5t-31 46t-17.5 54t-5.5 57.5zM93 209q0 -20 10.5 -36t27 -27t35.5 -16.5t37 -5.5q29 0 56 14.5t40 42.5l5 13q2 6 2 14 q0 7 -2.5 13t-4.5 13q-12 27 -39.5 42t-55.5 15q-30 0 -58 -12.5t-43 -39.5q-10 -13 -10 -30z" />
<glyph unicode="&#xf5;" horiz-adv-x="399" d="M144 659q-16 0 -23.5 -10.5t-12.5 -22.5l-8 -24q-4 -10 -14 -10h-28q-11 0 -14.5 10.5t-5.5 18.5v19q0 20 4 43t13 43.5t24.5 35.5t38.5 20l8 2h17q45 0 66.5 -21.5t33.5 -63.5q1 -3 2.5 -11t2.5 -10v-8l2 -11v-11q1 -6 1 -7q2 -14 12.5 -28.5t26.5 -14.5q15 0 22.5 10.5 t12 23t9 23t15.5 10.5h26q7 0 11.5 -5t6.5 -12.5t2.5 -15t0.5 -12.5q0 -18 -2.5 -38t-9.5 -38.5t-18 -34.5t-28 -25q-7 -4 -15 -7t-16 -3h-37q-3 0 -11.5 2.5t-10.5 3.5q-30 12 -43 41t-19 58q-2 11 -2.5 21t-2.5 19.5t-6.5 18t-14.5 16.5q-3 3 -7.5 4t-8.5 1zM20 206 q0 28 6 59t19 58.5t34 49t51 31.5q19 6 36 8t37 2h27q28 -2 51.5 -14t41.5 -31t30 -43t18 -50q1 -2 3 -13t2 -12t0.5 -3t1.5 -3q0 -2 0.5 -6t0.5 -5v-57q0 -1 -0.5 -4.5t-0.5 -5.5q-5 -24 -13.5 -48t-21.5 -45.5t-31 -38t-43 -25.5q-9 -4 -18.5 -6.5t-18.5 -2.5h-57 q-13 0 -27.5 4t-26.5 10q-28 13 -47 33.5t-31 46t-17.5 54t-5.5 57.5zM93 209q0 -20 10.5 -36t27 -27t35.5 -16.5t37 -5.5q29 0 56 14.5t40 42.5l5 13q2 6 2 14q0 7 -2.5 13t-4.5 13q-12 27 -39.5 42t-55.5 15q-30 0 -58 -12.5t-43 -39.5q-10 -13 -10 -30z" />
<glyph unicode="&#xf9;" d="M182 475q-11 5 -13.5 17t-2.5 23v148q0 8 4.5 20t15.5 12h28q13 0 16.5 -13t3.5 -22v-156q0 -7 -4 -18.5t-15 -11.5h-29q-1 0 -2 0.5t-2 0.5zM198 124q45 0 73 23t36 65q1 2 1.5 6t0.5 5v135q0 8 5 21t16 13h27q11 0 16 -11t5 -20v-182q0 -2 -0.5 -6t-0.5 -5 q-11 -52 -33 -93t-72 -64q-20 -10 -41 -10h-56q-9 0 -19 3l-19 4q-47 14 -73 51t-38 81q0 2 -1 6.5t-1 6.5q-1 6 -2.5 17.5t-1.5 13.5v172q0 4 1 10t3 12t6 10t10 4h27q7 0 11 -5t6 -11q1 -4 4 -18v-140q0 -1 1.5 -8.5t3.5 -11.5q9 -35 39.5 -54.5t65.5 -19.5z" />
<glyph unicode="&#xfb;" d="M93 531q0 2 0.5 5.5t0.5 4.5l31 88q0 1 0.5 1.5t0.5 1.5q1 1 2.5 6t4 11t4 11t2.5 6q5 14 15.5 30t28.5 16h32q9 0 16.5 -5t13 -12.5t9.5 -16t7 -15.5l37 -103l6 -22v-44q0 -6 -5.5 -13t-11.5 -7h-31q-11 0 -17 11t-9 19q-2 4 -8.5 18t-6.5 20q-2 4 -6.5 10.5t-9.5 6.5 t-9.5 -6t-6.5 -10t-7 -17t-7 -17q-3 -10 -9 -22.5t-19 -12.5h-27q-8 0 -12 4.5t-6 11t-2.5 13.5t-0.5 12v16zM198 124q45 0 73 23t36 65q1 2 1.5 6t0.5 5v135q0 8 5 21t16 13h27q11 0 16 -11t5 -20v-182q0 -2 -0.5 -6t-0.5 -5q-11 -52 -33 -93t-72 -64q-20 -10 -41 -10h-56 q-9 0 -19 3l-19 4q-47 14 -73 51t-38 81q0 2 -1 6.5t-1 6.5q-1 6 -2.5 17.5t-1.5 13.5v172q0 4 1 10t3 12t6 10t10 4h27q7 0 11 -5t6 -11q1 -4 4 -18v-140q0 -1 1.5 -8.5t3.5 -11.5q9 -35 39.5 -54.5t65.5 -19.5z" />
<glyph unicode="&#x152;" horiz-adv-x="799" d="M420 128q0 10 -0.5 37t-0.5 57t-0.5 56.5t-0.5 37.5v39v40q0 10 0.5 36.5t0.5 56.5t0.5 56t0.5 37q1 16 5.5 36t13 38t21.5 32t32 19q13 4 24.5 5t25.5 1h173q34 0 49 -12t15 -47q0 -19 -6 -35.5t-28 -21.5q-3 -1 -9.5 -2.5t-7.5 -1.5l-182 -2q-20 -1 -39 -14t-19 -36 q0 -96 2 -100l3 -6q5 -9 16 -12.5t21 -4.5q3 0 11 -0.5t17 -1t17 -1t11 -0.5q29 -3 38 -16.5t9 -40.5q0 -29 -10.5 -43t-40.5 -18q-3 0 -10 -0.5t-15.5 -1t-16 -1t-10.5 -0.5q-10 -1 -21 -4t-16 -13l-5 -10v-95q0 -12 7 -21.5t17.5 -16t22.5 -10t23 -3.5h157q34 0 49 -13 t15 -47q0 -38 -18.5 -50.5t-55.5 -11.5h-70q-26 0 -55 -1t-56.5 3.5t-50.5 18t-36 42.5q-16 33 -17 67zM20 537q2 10 3.5 19.5t3.5 19.5q20 69 60 102.5t112 33.5q60 0 101 -26.5t62 -84.5l10 -34q6 -18 6 -35v-352q0 -17 -5 -35t-11 -34q-22 -60 -62.5 -85.5t-101.5 -25.5 h-25q-60 7 -94.5 43t-51.5 93q-2 10 -3.5 19.5t-3.5 19.5v362zM199 587q-20 0 -40 -7t-35.5 -19.5t-25 -30t-9.5 -39.5v-270q0 -22 9.5 -39.5t25.5 -30t35.5 -19.5t39.5 -7t39.5 7t35.5 19.5t25.5 30.5t9.5 39v268q0 22 -9.5 40t-25 31t-35 20t-40.5 7z" />
<glyph unicode="&#x153;" horiz-adv-x="798" d="M419 208q0 43 10 80t31.5 65t55.5 44t81 16q90 0 135.5 -53.5t45.5 -141.5v-24q-4 -22 -16.5 -34.5t-35.5 -12.5l-162 -3h-4q-4 0 -5 -1q-2 0 -5.5 -0.5t-4.5 -2.5q2 -4 7.5 -6t9.5 -3q24 -8 48 -10l49 -4q16 -3 31 -11t15 -28v-36q0 -22 -16 -31t-33 -12h-28 q-109 0 -159 51.5t-50 157.5zM540 273q8 -5 18 -5h80q1 0 4 0.5t5 0.5q1 0 6 1t5 3q0 3 -8 6.5t-18.5 6t-20 4t-11.5 1.5q-6 0 -14.5 -1t-17.5 -3t-16.5 -5.5t-11.5 -8.5zM20 206q0 28 6 59t19 58.5t34 49t51 31.5q19 6 36 8t37 2h27q28 -2 51.5 -14t41.5 -31t30 -43t18 -50 q1 -2 3 -13t2 -12t0.5 -3t1.5 -3q0 -2 0.5 -6t0.5 -5v-57q0 -1 -0.5 -4.5t-0.5 -5.5q-5 -24 -13.5 -48t-21.5 -45.5t-31 -38t-43 -25.5q-9 -4 -18.5 -6.5t-18.5 -2.5h-57q-13 0 -27.5 4t-26.5 10q-28 13 -47 33.5t-31 46t-17.5 54t-5.5 57.5zM93 209q0 -20 10.5 -36t27 -27 t35.5 -16.5t37 -5.5q29 0 56 14.5t40 42.5l5 13q2 6 2 14q0 7 -2.5 13t-4.5 13q-12 27 -39.5 42t-55.5 15q-30 0 -58 -12.5t-43 -39.5q-10 -13 -10 -30z" />
<glyph unicode="&#x2c6;" horiz-adv-x="251" d="M20 524q0 2 0.5 5.5t0.5 4.5l31 88q0 1 0.5 1.5t0.5 1.5q1 1 2.5 6t4 11t4 11t2.5 6q5 14 15.5 30t28.5 16h32q9 0 16.5 -5t13 -12.5t9.5 -16t7 -15.5l37 -103l6 -22v-44q0 -6 -5.5 -13t-11.5 -7h-31q-11 0 -17 11t-9 19q-2 4 -8.5 18t-6.5 20q-2 4 -6.5 10.5t-9.5 6.5 t-9.5 -6t-6.5 -10t-7 -17t-7 -17q-3 -10 -9 -22.5t-19 -12.5h-27q-8 0 -12 4.5t-6 11t-2.5 13.5t-0.5 12v16z" />
<glyph unicode="&#x2dc;" horiz-adv-x="400" d="M-73 245q-16 0 -23.5 -10.5t-11.5 -22.5l-9 -24q-4 -10 -14 -10h-28q-11 0 -14.5 10.5t-5.5 18.5v19q0 20 4 43t13 43.5t24.5 35.5t38.5 20l8 2h17q45 0 66.5 -21.5t33.5 -63.5q1 -3 2.5 -11t2.5 -10q0 -2 1 -8v-11l2 -11v-7q2 -14 12.5 -28.5t26.5 -14.5q15 0 22.5 10.5 t12 23t9 23t15.5 10.5h26q7 0 11.5 -5t6.5 -12.5t2.5 -15t0.5 -12.5q0 -18 -2.5 -38t-9.5 -38.5t-18 -34.5t-28 -25q-7 -4 -15 -7t-16 -3h-37q-3 0 -11.5 2.5t-10.5 3.5q-30 12 -43 41t-19 58q-2 11 -2.5 21t-2.5 19.5t-6.5 18t-14.5 16.5q-3 3 -7.5 4t-8.5 1z" />
<glyph unicode="&#x2000;" horiz-adv-x="541" />
<glyph unicode="&#x2001;" horiz-adv-x="1082" />
<glyph unicode="&#x2002;" horiz-adv-x="541" />
<glyph unicode="&#x2003;" horiz-adv-x="1082" />
<glyph unicode="&#x2004;" horiz-adv-x="360" />
<glyph unicode="&#x2005;" horiz-adv-x="270" />
<glyph unicode="&#x2006;" horiz-adv-x="180" />
<glyph unicode="&#x2007;" horiz-adv-x="180" />
<glyph unicode="&#x2008;" horiz-adv-x="135" />
<glyph unicode="&#x2009;" horiz-adv-x="216" />
<glyph unicode="&#x200a;" horiz-adv-x="60" />
<glyph unicode="&#x2010;" horiz-adv-x="324" d="M69 295q-7 1 -15.5 4t-16 7.5t-12.5 11t-5 15.5q0 46 0.5 47.5t0.5 2.5q8 20 25 26t37 6h158q14 0 33 -4.5t26 -20.5q1 -2 2.5 -6t1.5 -5v-46q0 -3 -2 -8.5t-4 -7.5q-13 -15 -30.5 -19t-36.5 -4h-141q-2 0 -9.5 0.5t-11.5 0.5z" />
<glyph unicode="&#x2011;" horiz-adv-x="324" d="M69 295q-7 1 -15.5 4t-16 7.5t-12.5 11t-5 15.5q0 46 0.5 47.5t0.5 2.5q8 20 25 26t37 6h158q14 0 33 -4.5t26 -20.5q1 -2 2.5 -6t1.5 -5v-46q0 -3 -2 -8.5t-4 -7.5q-13 -15 -30.5 -19t-36.5 -4h-141q-2 0 -9.5 0.5t-11.5 0.5z" />
<glyph unicode="&#x2012;" horiz-adv-x="324" d="M69 295q-7 1 -15.5 4t-16 7.5t-12.5 11t-5 15.5q0 46 0.5 47.5t0.5 2.5q8 20 25 26t37 6h158q14 0 33 -4.5t26 -20.5q1 -2 2.5 -6t1.5 -5v-46q0 -3 -2 -8.5t-4 -7.5q-13 -15 -30.5 -19t-36.5 -4h-141q-2 0 -9.5 0.5t-11.5 0.5z" />
<glyph unicode="&#x2013;" horiz-adv-x="500" d="M20 294v121h460v-121h-460z" />
<glyph unicode="&#x2014;" horiz-adv-x="1000" d="M20 294v121h960v-121h-960z" />
<glyph unicode="&#x2018;" horiz-adv-x="108" d="M36 469q-11 5 -13.5 17t-2.5 23v148q0 8 4.5 20t15.5 12h28q13 0 16.5 -13t3.5 -22v-156q0 -7 -4 -18.5t-15 -11.5h-29q-1 0 -2 0.5t-2 0.5z" />
<glyph unicode="&#x2019;" horiz-adv-x="108" d="M35 469q-9 3 -12 14.5t-3 18.5v152q0 8 4 21.5t16 13.5h28q11 0 15.5 -12t4.5 -20v-157q0 -8 -4.5 -20t-15.5 -12h-28q-1 0 -2.5 0.5t-2.5 0.5z" />
<glyph unicode="&#x201c;" horiz-adv-x="216" d="M36 469q-10 3 -13 15t-3 20v148q0 9 4.5 22.5t16.5 13.5h26q11 0 16 -11.5t5 -19.5v-158q0 -8 -5 -19.5t-16 -11.5q-26 0 -28 0.5t-3 0.5zM144 469q-8 4 -12 13t-4 17v158q0 8 5 19.5t16 11.5h28q10 0 14.5 -11t4.5 -18v-162q0 -8 -5 -18.5t-15 -10.5q-28 0 -29.5 0.5 t-2.5 0.5z" />
<glyph unicode="&#x201d;" horiz-adv-x="216" d="M36 469q-10 3 -13 15t-3 20v148q0 9 4.5 22.5t16.5 13.5h26q11 0 16 -11.5t5 -19.5v-158q0 -8 -5 -19.5t-16 -11.5q-26 0 -28 0.5t-3 0.5zM144 469q-8 4 -12 13t-4 17v158q0 8 5 19.5t16 11.5h28q10 0 14.5 -11t4.5 -18v-162q0 -8 -5 -18.5t-15 -10.5q-28 0 -29.5 0.5 t-2.5 0.5z" />
<glyph unicode="&#x2026;" horiz-adv-x="315" d="M230 77q1 7 5.5 14t12.5 7h27q8 0 14 -7t6 -15v-33q0 -8 -6 -15t-14 -7h-27q-11 0 -14.5 9.5t-3.5 19.5v11v16zM125 77q1 7 5.5 14t12.5 7h27q8 0 14 -7t6 -15v-33q0 -8 -6 -15t-14 -7h-27q-11 0 -14.5 9.5t-3.5 19.5v11v16zM20 77q1 7 5.5 14t12.5 7h27q8 0 14 -7t6 -15 v-33q0 -8 -6 -15t-14 -7h-27q-11 0 -14.5 9.5t-3.5 19.5v11v16z" />
<glyph unicode="&#x202f;" horiz-adv-x="216" />
<glyph unicode="&#x2039;" d="M20 356q0 36 14 57.5t46 36.5l216 98q8 3 17 4t17 1q27 0 37.5 -11t10.5 -39q0 -22 -8.5 -38.5t-28.5 -26.5l-159 -74q-2 -1 -6 -3.5t-4 -4.5t4 -5t6 -3l159 -74q21 -10 29 -27.5t8 -39.5q0 -16 -6 -32t-26 -16h-31q-2 0 -9 1.5t-10 3.5l-218 99q-32 14 -45 36t-13 57z " />
<glyph unicode="&#x203a;" horiz-adv-x="397" d="M226 356q0 2 -8 7l-160 74q-13 6 -25.5 19.5t-12.5 29.5q0 35 1.5 40.5t2.5 7.5q4 13 17.5 16t24.5 3q9 0 18 -0.5t17 -4.5l230 -105q27 -12 36.5 -36t9.5 -51t-9.5 -51t-36.5 -36l-230 -105q-8 -4 -17.5 -4.5t-17.5 -0.5q-11 0 -24.5 2.5t-17.5 16.5q-1 2 -4 13v35 q0 16 12.5 29.5t25.5 19.5q160 74 164 76.5t4 4.5z" />
<glyph unicode="&#x205f;" horiz-adv-x="270" />
<glyph unicode="&#x2122;" horiz-adv-x="866" d="M428 286v8l12 253q1 1 1.5 4.5t0.5 5.5q0 5 1 19l2 28l2 27t1 18l2 13q2 7 5 14.5t7.5 12.5t12.5 5h33q9 0 16 -7t9 -15l19 -65l2 -6l57 -215q3 -11 8 -21t13 -18q7 6 12 16t7 18l50 192q1 1 1.5 3.5t1.5 3.5q1 3 4 13l5 22l5 23q3 10 4 13q1 6 3.5 13t6.5 14t10 11.5 t14 4.5h29q7 0 13 -5.5t9.5 -13t5.5 -15.5t2 -14l13 -228v-7l18 -311v-21v-26q0 -8 -4 -19t-15 -11h-29q-8 0 -12.5 7.5t-5.5 13.5q0 3 -1 10.5t-1 9.5l-16 285q-1 3 -2 12t-2.5 18.5t-4 18t-5.5 9.5q-1 -1 -2 -2.5t-2 -2.5q-3 -5 -7 -13.5t-6 -14.5l-45 -162q-2 -7 -5 -16 t-7.5 -17t-11.5 -13.5t-16 -5.5h-30q-12 0 -21 10.5t-12 21.5l-20 71q-2 9 -5 18t-5 19q0 1 -1.5 7.5t-4 14t-4 13.5t-1.5 8q-1 2 -3.5 10.5t-4.5 11.5q-1 2 -3.5 9.5t-3.5 9.5q-2 3 -5 9.5t-6 11.5l-1 1q-5 -3 -7.5 -16t-4.5 -19q0 -3 -1 -10t-1 -8l-7 -124v-7l-5 -96 q-1 -1 -1 -5q0 -3 -1 -4q0 -2 -0.5 -10t-0.5 -17t-0.5 -16.5t-0.5 -9.5q0 -1 -1 -7.5t-2 -10.5q-1 -6 -5 -14.5t-12 -8.5h-31q-8 0 -12.5 8t-4.5 14v67zM71 591q-30 4 -40.5 18.5t-10.5 43.5v12q0 9 1 12q2 10 9 17t16 10.5t19 5t19 1.5h229q19 0 37 -6t26 -25q0 -1 1 -5 v-46q0 -9 -6 -16q-7 -11 -19.5 -15.5t-24.5 -6.5q-20 -1 -38.5 -1.5t-37.5 -7.5q-8 -2 -10.5 -9t-6.5 -13q0 -499 -1 -505.5t-2 -10.5q-2 -6 -5.5 -13.5t-11.5 -7.5h-30q-5 0 -9 4.5t-6 9.5q-1 3 -2.5 9t-1.5 7q0 505 -1 508t-2 5q-5 12 -16.5 16.5t-23.5 5.5q-3 0 -10 0.5 t-15.5 1t-15.5 1t-10 0.5z" />
<glyph unicode="&#xe000;" horiz-adv-x="400" d="M0 400h400v-400h-400v400z" />
<glyph unicode="&#xfb01;" horiz-adv-x="505" d="M432 24q-7 2 -10 10t-3 15v313q0 7 4.5 16t13.5 9h27q12 0 16.5 -12.5t4.5 -21.5v-296q0 -8 -4 -21t-14 -13q-30 0 -32 0.5t-3 0.5zM435 460q-6 2 -11 7.5t-5 12.5v35q0 6 5 13t12 7h31q7 0 12 -8t5 -14v-31q0 -8 -6 -15.5t-14 -7.5q-24 0 -26 0.5t-3 0.5zM21 103 q0 36 -0.5 75.5t-0.5 74.5v50v53v48v24q0 17 0.5 36.5t0.5 36.5v25q1 27 8.5 54t21 50.5t33.5 42t47 27.5q19 7 36 8.5t37 1.5h27q24 -2 45.5 -12t38.5 -25.5t30 -36t20 -42.5q3 -9 5.5 -18.5t4.5 -18.5q2 -10 2 -13q0 -2 2 -12v-36q0 -8 -4.5 -18.5t-15.5 -10.5h-30 q-5 0 -9.5 5.5t-6.5 10.5q-1 3 -3.5 14.5t-3.5 14.5q-9 36 -39.5 55.5t-65.5 19.5q-20 0 -39.5 -6.5t-35.5 -19t-26 -30t-10 -38.5v-50q0 -7 4.5 -12t11 -8.5t13.5 -5.5t13 -2q3 0 11 -0.5t17 -0.5t17 -0.5t11 -0.5q28 -6 36.5 -17.5t8.5 -40.5q0 -30 -9.5 -42.5 t-39.5 -18.5q-5 -1 -10 -1h-10h-20q-21 0 -38 -7q-7 -3 -10 -10t-6 -13v-204q0 -4 -1 -10t-3.5 -12t-6.5 -10t-10 -4h-29q-11 0 -14.5 11.5t-4.5 19.5v49z" />
<glyph unicode="&#xfb02;" horiz-adv-x="505" d="M434 24q-15 7 -15 26v602q0 8 5 18t16 10h24q11 0 16 -11t5 -20v-597q0 -8 -4 -18.5t-14 -10.5q-30 0 -31 0.5t-2 0.5zM21 103q0 36 -0.5 75.5t-0.5 74.5v50v53v48v24q0 17 0.5 36.5t0.5 36.5v25q1 27 8.5 54t21 50.5t33.5 42t47 27.5q19 7 36 8.5t37 1.5h27 q24 -2 45.5 -12t38.5 -25.5t30 -36t20 -42.5q3 -9 5.5 -18.5t4.5 -18.5q2 -10 2 -13q0 -2 2 -12v-36q0 -8 -4.5 -18.5t-15.5 -10.5h-30q-5 0 -9.5 5.5t-6.5 10.5q-1 3 -3.5 14.5t-3.5 14.5q-9 36 -39.5 55.5t-65.5 19.5q-20 0 -39.5 -6.5t-35.5 -19t-26 -30t-10 -38.5v-50 q0 -7 4.5 -12t11 -8.5t13.5 -5.5t13 -2q3 0 11 -0.5t17 -0.5t17 -0.5t11 -0.5q28 -6 36.5 -17.5t8.5 -40.5q0 -30 -9.5 -42.5t-39.5 -18.5q-5 -1 -10 -1h-10h-20q-21 0 -38 -7q-7 -3 -10 -10t-6 -13v-204q0 -4 -1 -10t-3.5 -12t-6.5 -10t-10 -4h-29q-11 0 -14.5 11.5 t-4.5 19.5v49z" />
<glyph unicode="&#xfb03;" horiz-adv-x="904" d="M831 24q-7 2 -10 10t-3 15v313q0 7 4.5 16t13.5 9h27q12 0 16.5 -12.5t4.5 -21.5v-296q0 -8 -4 -21t-14 -13q-30 0 -32 0.5t-3 0.5zM834 460q-6 2 -11 7.5t-5 12.5v35q0 6 5 13t12 7h31q7 0 12 -8t5 -14v-31q0 -8 -6 -15.5t-14 -7.5q-24 0 -26 0.5t-3 0.5zM420 103 q0 36 -0.5 75.5t-0.5 74.5v50v53v48v24q0 17 0.5 36.5t0.5 36.5v25q1 27 8.5 54t21 50.5t33.5 42t47 27.5q19 7 36 8.5t37 1.5h27q24 -2 45.5 -12t38.5 -25.5t30 -36t20 -42.5q3 -9 5.5 -18.5t4.5 -18.5q2 -10 2 -13q0 -2 2 -12v-36q0 -8 -4.5 -18.5t-15.5 -10.5h-30 q-5 0 -9.5 5.5t-6.5 10.5q-1 3 -3.5 14.5t-3.5 14.5q-9 36 -39.5 55.5t-65.5 19.5q-20 0 -39.5 -6.5t-35.5 -19t-26 -30t-10 -38.5v-50q0 -7 4.5 -12t11 -8.5t13.5 -5.5t13 -2q3 0 11 -0.5t17 -0.5t17 -0.5t11 -0.5q28 -6 36.5 -17.5t8.5 -40.5q0 -30 -9.5 -42.5 t-39.5 -18.5q-5 -1 -10 -1h-10h-20q-21 0 -38 -7q-7 -3 -10 -10t-6 -13v-204q0 -4 -1 -10t-3.5 -12t-6.5 -10t-10 -4h-29q-11 0 -14.5 11.5t-4.5 19.5v49zM21 103q0 36 -0.5 75.5t-0.5 74.5v50v53v48v24q0 17 0.5 36.5t0.5 36.5v25q1 27 8.5 54t21 50.5t33.5 42t47 27.5 q19 7 36 8.5t37 1.5h27q24 -2 45.5 -12t38.5 -25.5t30 -36t20 -42.5q3 -9 5.5 -18.5t4.5 -18.5q2 -10 2 -13q0 -2 2 -12v-36q0 -8 -4.5 -18.5t-15.5 -10.5h-30q-5 0 -9.5 5.5t-6.5 10.5q-1 3 -3.5 14.5t-3.5 14.5q-9 36 -39.5 55.5t-65.5 19.5q-20 0 -39.5 -6.5t-35.5 -19 t-26 -30t-10 -38.5v-50q0 -7 4.5 -12t11 -8.5t13.5 -5.5t13 -2q3 0 11 -0.5t17 -0.5t17 -0.5t11 -0.5q28 -6 36.5 -17.5t8.5 -40.5q0 -30 -9.5 -42.5t-39.5 -18.5q-5 -1 -10 -1h-10h-20q-21 0 -38 -7q-7 -3 -10 -10t-6 -13v-204q0 -4 -1 -10t-3.5 -12t-6.5 -10t-10 -4h-29 q-11 0 -14.5 11.5t-4.5 19.5v49z" />
<glyph unicode="&#xfb04;" horiz-adv-x="904" d="M833 24q-15 7 -15 26v602q0 8 5 18t16 10h24q11 0 16 -11t5 -20v-597q0 -8 -4 -18.5t-14 -10.5q-30 0 -31 0.5t-2 0.5zM420 103q0 36 -0.5 75.5t-0.5 74.5v50v53v48v24q0 17 0.5 36.5t0.5 36.5v25q1 27 8.5 54t21 50.5t33.5 42t47 27.5q19 7 36 8.5t37 1.5h27 q24 -2 45.5 -12t38.5 -25.5t30 -36t20 -42.5q3 -9 5.5 -18.5t4.5 -18.5q2 -10 2 -13q0 -2 2 -12v-36q0 -8 -4.5 -18.5t-15.5 -10.5h-30q-5 0 -9.5 5.5t-6.5 10.5q-1 3 -3.5 14.5t-3.5 14.5q-9 36 -39.5 55.5t-65.5 19.5q-20 0 -39.5 -6.5t-35.5 -19t-26 -30t-10 -38.5v-50 q0 -7 4.5 -12t11 -8.5t13.5 -5.5t13 -2q3 0 11 -0.5t17 -0.5t17 -0.5t11 -0.5q28 -6 36.5 -17.5t8.5 -40.5q0 -30 -9.5 -42.5t-39.5 -18.5q-5 -1 -10 -1h-10h-20q-21 0 -38 -7q-7 -3 -10 -10t-6 -13v-204q0 -4 -1 -10t-3.5 -12t-6.5 -10t-10 -4h-29q-11 0 -14.5 11.5 t-4.5 19.5v49zM21 103q0 36 -0.5 75.5t-0.5 74.5v50v53v48v24q0 17 0.5 36.5t0.5 36.5v25q1 27 8.5 54t21 50.5t33.5 42t47 27.5q19 7 36 8.5t37 1.5h27q24 -2 45.5 -12t38.5 -25.5t30 -36t20 -42.5q3 -9 5.5 -18.5t4.5 -18.5q2 -10 2 -13q0 -2 2 -12v-36q0 -8 -4.5 -18.5 t-15.5 -10.5h-30q-5 0 -9.5 5.5t-6.5 10.5q-1 3 -3.5 14.5t-3.5 14.5q-9 36 -39.5 55.5t-65.5 19.5q-20 0 -39.5 -6.5t-35.5 -19t-26 -30t-10 -38.5v-50q0 -7 4.5 -12t11 -8.5t13.5 -5.5t13 -2q3 0 11 -0.5t17 -0.5t17 -0.5t11 -0.5q28 -6 36.5 -17.5t8.5 -40.5 q0 -30 -9.5 -42.5t-39.5 -18.5q-5 -1 -10 -1h-10h-20q-21 0 -38 -7q-7 -3 -10 -10t-6 -13v-204q0 -4 -1 -10t-3.5 -12t-6.5 -10t-10 -4h-29q-11 0 -14.5 11.5t-4.5 19.5v49z" />
</font>
</defs>
</svg>
